<?xml version="1.0" standalone="no"?>
<!DOCTYPE svg PUBLIC "-//W3C//DTD SVG 20010904//EN"
 "http://www.w3.org/TR/2001/REC-SVG-20010904/DTD/svg10.dtd">
<svg version="1.0" xmlns="http://www.w3.org/2000/svg"
 width="450.000000pt" height="600.000000pt" viewBox="0 0 450.000000 600.000000"
 preserveAspectRatio="xMidYMid meet">

<g transform="translate(0.000000,600.000000) scale(0.100000,-0.100000)"
fill="#000000" stroke="none">
<path d="M2036 5654 c-14 -20 -19 -21 -46 -11 -24 9 -35 9 -52 -2 -13 -8 -45
-13 -75 -12 -59 2 -106 -17 -124 -50 -8 -15 -8 -43 1 -106 l11 -84 -31 -46
c-16 -26 -30 -52 -30 -58 0 -7 -9 -20 -20 -30 -20 -18 -22 -18 -85 8 -36 15
-78 27 -94 27 -19 0 -44 14 -76 42 -42 37 -55 42 -104 46 -50 4 -61 1 -88 -22
-17 -14 -41 -26 -52 -26 -59 0 -129 -57 -171 -139 -21 -42 -89 -98 -130 -108
-39 -9 -79 -52 -86 -92 -10 -61 -14 -70 -56 -119 -61 -69 -81 -122 -68 -171 7
-28 16 -41 31 -43 14 -2 25 -15 33 -38 7 -24 22 -41 46 -54 24 -13 47 -38 67
-76 18 -31 45 -70 61 -86 16 -16 39 -44 52 -63 21 -31 26 -33 64 -27 47 8 69
25 87 67 9 22 14 27 20 17 14 -22 10 -88 -6 -104 -8 -9 -15 -25 -15 -37 0 -12
-16 -45 -36 -72 -29 -41 -35 -57 -31 -86 3 -21 -1 -43 -9 -54 -9 -13 -13 -51
-13 -129 1 -96 4 -114 22 -140 12 -17 20 -42 19 -57 -4 -36 39 -119 76 -146
20 -15 33 -36 41 -67 8 -35 20 -52 45 -68 28 -18 35 -30 39 -66 4 -33 12 -50
32 -66 27 -21 27 -24 29 -141 2 -87 10 -155 30 -248 l28 -129 -21 -82 c-12
-47 -21 -114 -21 -156 0 -82 -14 -146 -37 -172 -11 -13 -26 -15 -67 -11 -67 7
-92 -7 -108 -58 -8 -28 -23 -48 -45 -63 -42 -27 -54 -62 -41 -116 10 -40 10
-42 -26 -74 -20 -19 -36 -38 -36 -44 0 -6 -12 -12 -27 -14 -38 -4 -48 -30 -69
-183 -12 -88 -24 -138 -37 -156 -28 -39 -20 -100 15 -117 27 -13 28 -16 28
-87 0 -98 54 -238 105 -271 32 -21 168 -48 232 -47 31 1 32 0 18 -20 -36 -51
-9 -133 52 -163 58 -28 178 -32 978 -40 764 -6 865 -3 914 34 49 36 73 82 69
136 l-3 48 81 27 c105 34 161 73 185 128 10 24 23 43 28 43 6 0 14 12 17 27 4
15 13 34 21 41 7 7 13 30 13 50 1 60 17 116 40 134 13 11 24 34 27 57 5 34 2
43 -23 66 -22 20 -30 39 -36 83 -12 97 -20 122 -40 137 -20 13 -33 31 -60 85
-7 14 -23 33 -36 44 -21 16 -22 24 -16 75 6 55 5 59 -25 87 -17 16 -36 43 -42
61 -15 47 -63 73 -136 73 -74 0 -90 15 -103 93 -5 30 -22 90 -39 132 -17 42
-31 85 -31 96 0 10 12 54 27 96 23 70 27 97 31 253 4 156 7 176 23 188 11 7
19 24 19 37 0 13 5 27 10 30 6 3 10 14 10 24 0 10 9 26 20 36 23 21 90 153 90
177 0 10 9 22 20 28 30 16 54 59 52 92 -1 17 6 40 17 54 28 36 45 92 33 107
-7 9 -3 24 14 52 24 41 33 118 15 130 -6 3 -7 28 -4 54 5 40 1 56 -17 85 -12
20 -17 36 -11 36 18 0 12 36 -14 81 -14 24 -25 50 -25 57 0 8 -14 34 -32 58
-25 35 -29 47 -20 56 19 19 45 -3 53 -43 9 -39 41 -69 76 -69 29 0 142 112
169 167 9 18 38 46 64 63 62 40 117 100 141 156 18 39 18 47 5 76 -7 18 -34
57 -60 86 -41 48 -46 59 -46 103 0 94 -45 136 -172 162 l-62 12 -21 55 c-23
63 -83 128 -148 159 -89 43 -192 18 -264 -63 -33 -37 -47 -45 -115 -61 -42
-10 -83 -15 -92 -12 -8 3 -20 23 -25 45 -6 21 -22 49 -36 62 -22 20 -25 32
-25 89 0 39 -6 76 -15 91 -19 33 -21 38 -34 88 -16 58 -48 77 -125 75 -46 -1
-66 3 -84 18 -27 20 -67 25 -77 9 -8 -14 -48 -13 -62 1 -9 9 -20 9 -42 -1 -25
-10 -34 -10 -46 0 -13 11 -20 11 -40 0 -17 -9 -28 -10 -37 -2 -7 5 -46 10 -85
10 -64 -1 -74 -3 -87 -24z m334 -39 c7 -8 10 -27 7 -42 -19 -88 -19 -93 -6
-97 127 -38 162 -52 193 -78 43 -35 61 -67 71 -125 3 -23 13 -47 20 -53 8 -6
17 -25 20 -42 6 -27 2 -35 -41 -74 -26 -25 -53 -43 -60 -40 -6 2 -25 27 -42
55 l-31 50 49 27 c47 25 72 55 33 39 -10 -4 -48 -17 -84 -28 -58 -18 -69 -18
-95 -6 -38 18 -42 54 -12 99 28 41 70 64 99 55 12 -4 39 -23 60 -42 49 -44 51
-26 4 26 -63 69 -124 63 -198 -18 -42 -46 -45 -65 -17 -101 11 -14 20 -37 20
-52 0 -23 -5 -28 -37 -34 -20 -4 -52 -3 -72 2 -39 10 -40 13 -25 111 5 34 1
50 -16 78 -53 85 -147 85 -230 0 -43 -44 -33 -44 31 0 59 40 58 40 104 20 60
-24 67 -92 13 -129 -29 -21 -47 -20 -130 5 -38 11 -75 18 -81 16 -7 -3 1 -8
17 -12 16 -5 45 -19 64 -32 19 -12 44 -23 55 -23 18 0 17 -2 -6 -20 -14 -11
-29 -31 -33 -43 -3 -12 -14 -31 -24 -42 -23 -26 -34 -62 -20 -70 13 -8 13 -65
0 -65 -6 0 -13 7 -16 15 -4 8 -13 15 -22 15 -12 0 -10 -5 7 -21 20 -19 22 -28
17 -69 -7 -53 2 -66 53 -76 42 -9 63 -38 49 -69 -12 -27 -31 -23 -46 9 -7 15
-26 29 -54 37 -38 12 -43 18 -46 47 -2 18 2 39 8 47 8 10 7 21 -4 44 -21 40
-20 54 4 76 34 31 26 72 -25 126 -52 55 -55 76 -20 117 19 23 25 41 25 79 0
38 5 54 23 71 31 29 121 69 185 83 29 6 56 17 59 25 3 7 -5 29 -17 49 -27 43
-24 79 8 83 38 6 55 -16 49 -63 -3 -22 -8 -48 -12 -57 -6 -15 -2 -18 25 -18
30 0 32 2 27 28 -18 85 -19 88 -3 101 9 7 23 10 32 7 13 -5 16 -18 12 -71 -4
-63 -3 -65 20 -65 21 0 23 3 17 23 -4 12 -9 39 -12 60 -8 56 27 88 57 52z
m110 -7 c-1 -32 -52 -123 -70 -123 -17 0 -25 43 -16 81 14 55 86 90 86 42z
m-374 -23 c16 -25 13 -88 -5 -99 -14 -9 -61 67 -61 97 0 22 5 27 25 27 15 0
31 -9 41 -25z m-112 -6 c32 -25 56 -69 56 -101 -1 -21 -5 -19 -38 20 -43 48
-64 56 -32 12 32 -44 19 -59 -18 -22 -38 37 -36 37 -67 16 -13 -9 -29 -13 -35
-9 -5 3 -10 2 -10 -3 0 -6 8 -13 17 -16 12 -5 14 -9 5 -18 -18 -18 -15 -28 8
-28 24 0 39 26 32 54 -5 18 -3 19 11 8 33 -28 30 -49 -17 -107 -40 -49 -46
-62 -46 -103 0 -28 -8 -64 -20 -87 -26 -51 -25 -66 6 -135 21 -47 24 -62 14
-79 -6 -12 -15 -19 -20 -16 -4 3 -22 -8 -38 -25 -45 -45 -119 -36 -78 9 20 22
21 55 1 71 -10 8 -15 30 -15 62 0 46 2 49 23 46 17 -2 24 -13 32 -45 13 -53
27 -69 44 -49 18 22 3 62 -41 108 -38 39 -40 45 -35 88 8 67 23 100 46 100 15
0 23 -9 29 -32 l8 -32 13 32 c12 28 11 35 -8 65 -25 41 -26 60 -6 77 21 18 19
32 -5 25 -18 -6 -20 -2 -20 33 0 49 17 64 73 66 27 1 51 8 61 19 23 22 38 22
70 -4z m650 5 c9 -8 16 -19 16 -23 0 -18 -41 -59 -70 -71 -35 -15 -35 -33 1
-38 13 -2 36 -15 52 -30 33 -32 38 -9 6 32 -11 15 -18 33 -15 41 8 21 36 19
42 -2 3 -10 14 -35 25 -56 23 -44 19 -85 -12 -113 -24 -22 -24 -34 0 -27 14 3
29 -8 55 -43 40 -52 43 -68 21 -121 -14 -34 -14 -37 5 -50 18 -13 20 -21 14
-59 -4 -29 -2 -49 6 -58 8 -11 8 -20 1 -35 -6 -11 -11 -29 -11 -41 0 -16 -5
-20 -15 -16 -18 6 -19 2 -4 -26 8 -15 8 -23 -1 -32 -9 -8 -14 -8 -17 0 -2 6
-10 20 -18 30 -12 17 -13 12 -8 -38 5 -48 3 -58 -9 -58 -22 0 -33 17 -57 84
-15 44 -18 63 -10 78 10 19 12 19 30 2 23 -21 25 -7 3 24 -19 27 -11 73 18
115 11 15 22 45 25 65 4 31 -1 46 -32 92 -35 52 -37 59 -31 111 5 50 3 59 -17
78 -13 11 -29 21 -35 21 -28 0 -92 34 -98 52 -8 27 22 58 58 58 37 0 33 24 -5
28 -22 3 -31 -4 -48 -32 -22 -38 -34 -44 -42 -23 -7 20 9 53 39 76 33 26 114
29 138 5z m-1276 -276 c7 -7 12 -21 12 -33 0 -12 5 -26 12 -33 16 -16 38 -104
30 -117 -4 -5 -5 -18 -4 -27 2 -11 -7 -22 -22 -30 -24 -11 -25 -12 -10 -29 19
-21 12 -49 -11 -49 -12 0 -11 -5 5 -32 22 -37 26 -78 8 -96 -9 -9 -19 -7 -45
9 -48 30 -53 15 -10 -29 28 -29 37 -46 37 -73 0 -38 -23 -79 -46 -79 -17 0
-17 5 -4 31 16 29 -4 59 -40 59 -31 0 -60 22 -60 46 0 10 9 14 28 12 23 -3 27
1 30 24 3 22 -2 28 -35 38 -48 16 -65 30 -35 30 31 0 79 26 92 49 13 25 13 72
-1 108 -13 34 -48 73 -66 73 -7 0 1 -13 19 -29 28 -25 33 -36 33 -76 0 -50
-22 -79 -72 -91 -36 -9 -40 3 -10 34 51 53 30 87 -70 117 -40 12 -53 21 -63
44 -23 56 20 105 66 76 31 -20 38 -6 12 22 -28 30 -16 42 21 20 28 -16 30 -16
72 13 47 31 105 40 127 18z m1927 -22 c46 -20 61 -50 40 -82 -13 -20 -13 -24
-1 -24 7 0 20 10 29 23 18 27 36 14 19 -14 -12 -18 -11 -19 7 -10 11 6 22 11
25 11 13 0 5 -67 -10 -89 -14 -20 -22 -22 -59 -17 -46 7 -55 -1 -55 -49 0 -30
-16 -41 -25 -17 -7 15 -9 14 -14 -7 -5 -18 -18 -27 -52 -37 -54 -16 -76 -38
-81 -79 -2 -24 -8 -30 -27 -30 -52 0 -49 36 15 143 19 32 23 47 15 55 -7 7
-13 4 -19 -12 -8 -21 -9 -22 -23 -5 -7 9 -14 32 -14 50 0 19 -4 33 -10 33 -5
0 -9 -14 -7 -31 5 -54 -16 -98 -54 -114 -18 -8 -47 -14 -64 -14 -22 0 -30 -5
-30 -18 0 -14 7 -17 47 -13 26 2 58 10 70 18 22 15 23 14 23 -11 0 -14 -7 -41
-17 -60 -15 -32 -21 -35 -62 -38 -37 -2 -48 -8 -56 -25 -12 -28 -31 -29 -45
-3 -14 26 -5 57 21 70 24 13 25 30 1 30 -11 0 -27 9 -37 20 -19 21 -14 50 8
50 7 0 23 11 34 24 12 14 37 26 61 30 44 7 72 35 71 71 0 19 -1 19 -9 -1 -5
-14 -21 -24 -43 -28 -19 -4 -52 -20 -73 -37 -37 -29 -64 -34 -71 -13 -6 19 41
76 91 111 50 34 57 35 143 17 19 -3 24 2 33 34 22 83 118 124 205 88z m-1756
-63 l26 -18 -54 -3 c-54 -3 -70 5 -71 37 0 18 63 8 99 -16z m105 -15 c13 -13
27 -33 31 -46 l7 -23 -38 23 c-40 26 -64 68 -39 68 8 0 25 -10 39 -22z m-17
-74 c52 -36 71 -68 59 -99 -9 -26 -25 -17 -47 28 -26 52 -48 77 -66 77 -9 0
-1 -17 21 -46 57 -75 57 -134 0 -134 -32 0 -31 -24 1 -62 29 -34 32 -60 9 -82
-27 -27 -44 -20 -44 19 0 32 -2 35 -29 35 -21 0 -42 12 -70 39 -37 35 -40 42
-31 66 7 18 7 33 -1 46 -20 38 -2 44 20 7 20 -33 26 -37 82 -43 66 -8 79 -3
63 23 -7 11 -31 20 -69 24 -32 4 -64 13 -71 19 -20 16 -16 107 5 120 31 19
112 2 168 -37z m515 -13 c3 -48 5 -49 86 -76 43 -14 58 -15 82 -5 22 9 36 9
63 -1 31 -11 38 -10 71 10 28 18 36 29 36 51 0 36 16 47 29 21 18 -32 13 -59
-18 -93 -24 -27 -36 -33 -68 -32 -21 1 -54 9 -72 18 -18 10 -30 12 -26 6 11
-18 70 -40 109 -40 25 0 45 9 69 30 32 27 57 38 57 25 0 -17 -33 -66 -49 -75
-48 -25 -182 1 -206 40 -3 5 -11 10 -17 10 -16 0 32 -49 64 -66 16 -8 57 -14
99 -14 70 0 72 0 108 40 39 43 55 49 65 24 9 -24 7 -54 -4 -54 -5 0 -10 7 -10
15 0 23 -16 18 -34 -10 -29 -43 -75 -65 -139 -65 -68 0 -104 16 -144 65 l-29
35 -14 -25 c-25 -47 -129 -105 -188 -105 -34 0 -26 27 11 36 l32 7 -47 14
c-73 21 -70 35 5 27 69 -7 154 13 178 42 19 24 5 25 -36 4 -26 -13 -59 -20
-98 -20 -50 0 -61 4 -82 26 -25 27 -33 54 -16 54 5 0 16 -11 25 -25 23 -35 86
-50 139 -33 51 16 62 44 20 53 -58 13 -68 22 -81 70 -10 36 -10 51 -1 62 17
20 27 5 31 -46z m306 2 c4 -36 -25 -73 -57 -73 -31 0 -35 19 -7 32 21 9 26 18
26 45 0 27 4 34 18 31 11 -2 18 -14 20 -35z m-1401 -5 c13 -12 45 -34 71 -48
63 -34 67 -60 12 -89 -22 -11 -56 -21 -75 -21 -19 0 -35 -4 -35 -10 0 -5 23
-10 50 -10 41 0 56 -5 75 -25 14 -13 25 -31 25 -39 0 -8 6 -16 13 -19 10 -3
10 -11 0 -39 -16 -44 -17 -119 -1 -153 10 -22 9 -32 -6 -60 -12 -21 -17 -48
-14 -76 2 -37 0 -44 -17 -47 -27 -5 -55 -31 -67 -62 -6 -17 -11 -21 -17 -12
-6 10 -12 6 -25 -12 -11 -18 -25 -26 -46 -26 -35 0 -40 22 -15 70 12 23 23 30
44 30 38 0 84 36 76 60 -3 10 -1 21 5 25 23 14 10 66 -24 98 -18 18 -44 50
-56 71 -22 37 -22 39 -4 32 44 -19 61 -17 92 9 18 15 32 33 32 41 0 19 -6 18
-40 -8 -24 -17 -34 -19 -52 -10 -13 6 -17 11 -10 11 6 1 12 6 12 12 0 21 -122
6 -157 -19 -17 -12 -39 -22 -50 -22 -14 0 -11 6 15 28 23 20 32 35 32 58 0 44
20 65 68 71 44 6 50 20 16 38 -10 6 -32 19 -47 29 -28 19 -29 19 -55 -1 -36
-27 -41 -68 -10 -92 19 -16 21 -23 13 -47 -6 -15 -23 -35 -40 -44 -18 -10 -34
-30 -41 -51 -6 -19 -23 -41 -38 -49 -25 -14 -28 -14 -46 8 -25 30 -12 68 41
116 21 20 39 43 39 50 0 8 7 19 15 26 9 7 15 29 15 52 0 50 33 83 105 103 37
11 55 23 68 45 22 36 24 36 54 8z m1041 -53 c12 -19 32 -37 46 -41 29 -7 25
-24 -5 -24 -49 0 -108 53 -95 86 9 24 33 15 54 -21z m1423 1 c30 -14 76 -30
102 -37 56 -14 76 -43 88 -127 6 -44 15 -61 53 -102 25 -27 46 -59 46 -70 0
-51 -42 -81 -55 -40 -10 33 -35 50 -71 50 -26 0 -34 4 -34 18 0 11 -9 27 -20
37 -28 25 -18 30 16 9 l27 -18 -6 25 c-4 15 -1 33 7 45 17 26 9 98 -15 120
-24 21 -34 14 -94 -72 l-44 -64 28 -15 c48 -24 61 -43 54 -75 -5 -29 -4 -30
28 -30 44 0 96 -28 117 -62 25 -42 6 -44 -38 -4 -61 55 -82 48 -30 -11 17 -18
30 -38 30 -43 0 -12 -30 -14 -30 -2 -1 4 -12 21 -26 37 l-25 30 16 -37 c18
-45 20 -88 3 -88 -15 0 -100 121 -92 129 3 3 10 -2 16 -13 6 -10 23 -32 39
-50 l29 -31 -15 43 c-8 24 -29 61 -46 83 -25 32 -37 39 -65 39 -37 0 -55 -25
-79 -105 -8 -26 -21 -44 -38 -53 -61 -30 -12 -102 69 -102 42 0 44 -1 44 -30
0 -17 7 -41 15 -54 12 -19 13 -25 3 -33 -39 -30 -83 -18 -93 26 -4 20 -18 37
-43 52 -58 34 -62 44 -62 141 l0 88 33 0 c25 0 42 9 72 40 l39 40 -35 -10
c-18 -6 -47 -10 -63 -10 -25 0 -28 3 -23 26 2 14 0 41 -6 60 -8 25 -7 37 3 49
15 18 85 20 126 5 44 -17 50 4 10 35 -30 23 -41 26 -75 20 -33 -5 -41 -3 -50
14 -19 34 -13 71 12 80 12 5 32 23 45 40 27 37 35 38 103 7z m-1826 -100 c-6
-32 -7 -45 -2 -108 2 -39 -16 -54 -21 -18 -2 11 -17 33 -33 49 -37 37 -37 47
1 55 24 4 32 12 36 36 4 16 11 27 16 24 6 -4 7 -20 3 -38z m1619 -1 c9 -23 -3
-42 -39 -64 -19 -11 -41 -34 -50 -52 -15 -29 -15 -33 -1 -47 13 -13 16 -13 16
-2 0 18 40 60 58 60 11 0 12 -11 7 -52 -10 -76 -26 -95 -93 -114 -31 -9 -63
-22 -71 -30 -12 -11 -11 -15 13 -24 29 -11 31 -33 2 -38 -30 -6 -66 26 -66 59
0 63 44 123 65 89 9 -15 81 -12 95 4 9 12 5 16 -25 22 -41 7 -63 34 -71 86 -6
33 -4 35 35 48 22 7 52 26 67 41 31 32 49 37 58 14z m-2374 -15 c0 -5 -9 -10
-19 -10 -11 0 -23 5 -26 10 -4 6 5 10 19 10 14 0 26 -4 26 -10z m1692 -66 c10
-57 1 -73 -47 -94 -25 -11 -46 -27 -50 -40 -9 -29 -29 -20 -33 16 -2 24 4 33
33 52 21 13 35 30 35 42 0 11 4 20 10 20 5 0 12 11 16 25 9 36 28 25 36 -21z
m1015 35 c9 -9 8 -19 -2 -39 -16 -30 -33 -40 -72 -40 -24 0 -24 1 14 45 42 49
44 50 60 34z m-1781 -60 l12 -44 3 35 c6 54 24 32 21 -25 -7 -111 -53 -135
-121 -63 -32 33 -41 50 -39 73 3 25 8 30 38 36 19 4 39 15 45 23 15 25 29 13
41 -35z m991 14 c-3 -10 -8 -40 -12 -68 -4 -27 -15 -60 -26 -73 -27 -35 -23
-50 6 -22 l25 23 0 -30 c0 -16 -11 -50 -23 -74 -28 -52 -39 -106 -27 -134 7
-16 9 -12 9 19 1 45 38 108 61 103 27 -5 19 -98 -13 -144 -25 -36 -37 -93 -19
-93 4 0 16 15 26 34 19 36 41 52 51 36 9 -14 -12 -84 -33 -111 -15 -20 -16
-29 -7 -58 l12 -33 12 30 c17 40 46 67 56 52 9 -15 -54 -140 -70 -140 -15 0
-25 22 -25 57 0 14 -11 38 -23 53 -17 20 -26 46 -30 89 -4 34 -18 83 -32 112
-26 49 -26 52 -10 98 8 26 13 55 9 64 -3 9 3 32 15 50 12 19 21 45 21 59 0 34
30 118 42 118 5 0 7 -8 5 -17z m-1383 -18 c3 -8 12 -15 19 -15 22 0 117 -95
117 -117 0 -11 -9 -28 -19 -37 -19 -17 -20 -17 -31 4 -6 11 -35 31 -65 44 -42
19 -54 30 -59 53 -11 50 22 109 38 68z m830 0 c11 -8 28 -15 39 -15 30 0 16
-33 -20 -50 -36 -17 -43 -30 -15 -30 10 0 29 11 42 25 13 14 30 25 37 25 26 0
-15 -59 -45 -65 -15 -4 -35 -10 -44 -16 -30 -16 -45 -10 -78 27 -39 45 -37 73
10 96 42 21 49 22 74 3z m170 -37 c3 -13 6 -51 6 -85 0 -55 -3 -64 -27 -82
-30 -25 -67 -36 -83 -26 -8 5 -6 11 6 20 16 11 14 13 -14 17 -25 4 -32 1 -30
-11 2 -12 -7 -17 -40 -19 -40 -3 -43 -2 -37 17 6 21 -9 29 -20 11 -3 -5 -18
-11 -33 -11 -24 -2 -24 -2 -4 -6 33 -7 16 -23 -24 -23 -24 0 -43 8 -61 26 -24
24 -25 29 -19 97 8 91 20 103 54 57 46 -60 82 -89 118 -96 62 -11 95 6 142 74
24 34 47 62 52 62 4 0 10 -10 14 -22z m607 -17 c19 -16 21 -21 11 -34 -20 -24
-77 -47 -115 -47 -38 0 -61 -19 -51 -44 4 -11 1 -16 -10 -16 -9 0 -16 5 -16
12 0 6 -8 20 -17 30 -16 18 -15 21 28 60 24 22 53 44 64 49 35 14 82 10 106
-10z m-1398 -28 c8 -16 17 -45 21 -65 5 -30 4 -38 -8 -38 -8 0 -17 8 -21 19
-3 10 -14 26 -25 36 -23 20 -26 45 -8 63 18 18 26 15 41 -15z m-713 8 c0 -19
-93 -121 -110 -121 -10 0 -28 -12 -39 -27 -16 -22 -20 -24 -21 -10 0 10 8 30
18 44 19 31 5 26 -35 -10 -28 -25 -29 -15 -3 29 15 23 35 37 68 49 26 8 58 24
72 35 26 21 50 26 50 11z m267 -41 c14 -11 34 -20 43 -20 11 0 20 -11 25 -27
4 -16 20 -39 35 -53 45 -39 45 -111 1 -138 l-30 -18 29 -11 c22 -8 30 -19 35
-46 11 -59 -31 -104 -84 -90 l-21 5 20 25 c30 38 25 61 -25 114 -50 53 -65 93
-44 115 13 12 20 10 52 -17 21 -18 37 -40 37 -52 1 -20 2 -19 16 6 15 28 14
29 -33 83 -26 30 -58 72 -70 92 -34 56 -30 67 14 32z m1476 -15 c17 -16 27
-36 27 -53 -1 -38 -31 -95 -56 -106 -11 -5 -30 -24 -42 -43 -13 -19 -31 -33
-42 -33 -22 0 -27 16 -7 23 8 3 4 20 -17 60 -31 59 -28 90 4 47 l19 -25 -4 40
c-2 22 -2 32 1 23 8 -27 24 -21 24 9 0 41 17 16 29 -42 l10 -50 -3 63 c-2 57
-1 62 18 62 20 0 20 1 -2 18 -22 17 -21 32 2 32 6 0 24 -11 39 -25z m-1251
-10 c11 -14 27 -25 36 -25 10 0 23 -9 30 -20 8 -13 23 -20 42 -20 33 0 50 -23
50 -68 0 -59 -58 -71 -72 -15 -6 25 -15 34 -36 38 -61 13 -76 21 -83 45 -6 22
-7 21 -8 -10 -1 -51 19 -74 88 -99 34 -12 65 -30 71 -41 24 -45 0 -90 -47 -90
-25 0 -25 0 -8 -26 36 -55 -13 -122 -70 -96 -35 16 -31 4 10 -34 58 -53 44
-114 -28 -114 -38 0 -38 -9 1 -45 33 -30 35 -35 25 -58 -7 -15 -26 -33 -43
-42 -34 -17 -37 -27 -15 -45 31 -26 5 -100 -36 -100 -27 0 -24 -9 13 -41 l33
-27 -17 -36 c-24 -48 -46 -48 -44 2 1 34 -2 39 -42 58 -24 11 -48 27 -53 35
-13 21 -11 55 5 68 15 13 21 9 50 -34 12 -16 16 -17 30 -6 25 21 19 47 -19 85
-43 43 -48 86 -11 86 14 0 28 -4 31 -10 11 -18 43 -11 51 12 5 18 -2 30 -40
63 -52 45 -55 54 -26 80 20 18 21 18 43 -3 13 -12 31 -22 40 -22 29 0 19 32
-24 71 -47 43 -49 75 -7 98 24 14 28 14 47 -3 11 -10 25 -15 30 -11 21 12 11
36 -24 52 -33 16 -55 53 -55 94 0 29 17 31 56 4 20 -14 43 -25 50 -25 7 0 15
-6 17 -12 4 -10 8 -9 16 2 16 23 9 31 -44 51 -63 24 -76 38 -79 85 -2 22 -9
51 -16 66 -11 24 -11 30 3 46 10 10 17 25 17 34 0 36 34 38 62 3z m-433 -30
c17 -20 40 -53 51 -75 l21 -40 -26 -10 c-15 -6 -32 -10 -39 -10 -7 0 -20 -8
-29 -18 -36 -40 -144 -77 -122 -43 2 5 -4 16 -15 26 -11 10 -20 25 -20 34 1
14 2 14 14 -1 22 -30 41 -22 21 8 -9 14 -14 33 -10 42 6 15 9 14 26 -7 10 -13
20 -35 20 -50 1 -26 1 -26 9 4 4 17 8 26 9 20 4 -32 18 -35 62 -12 57 30 63
60 21 96 -30 26 -52 71 -34 71 6 0 24 -16 41 -35z m836 5 c25 49 40 40 55 -32
7 -37 9 -40 15 -20 10 31 35 28 35 -5 0 -25 0 -26 20 -8 20 18 20 17 20 -9 0
-21 -7 -30 -34 -41 -24 -10 -35 -22 -39 -45 -5 -21 -12 -30 -26 -30 -24 0 -35
15 -50 68 -6 23 -16 42 -21 42 -12 0 -70 81 -70 98 0 9 14 2 40 -18 l39 -31
16 31z m1616 -64 c-22 -41 -41 -78 -41 -81 0 -12 38 -4 44 10 8 22 26 18 26
-6 0 -18 2 -19 15 -9 13 10 15 9 15 -11 1 -24 1 -24 25 6 20 24 27 27 37 17
11 -11 8 -17 -14 -34 -16 -11 -28 -26 -28 -34 0 -20 14 -17 35 6 19 21 45 27
45 10 0 -5 -13 -19 -30 -31 -16 -12 -27 -26 -24 -31 3 -4 -1 -8 -10 -8 -8 0
-29 18 -46 40 -22 27 -39 40 -56 40 -30 0 -64 17 -64 31 0 6 10 24 23 39 12
15 35 51 50 80 16 29 31 50 34 47 3 -4 -13 -40 -36 -81z m-2552 35 c-35 -30
-49 -25 -15 5 15 14 31 23 34 20 2 -3 -6 -14 -19 -25z m2120 -8 c12 -43 4 -57
-46 -78 -28 -12 -33 -19 -28 -35 8 -25 -18 -38 -40 -20 -35 29 -7 117 48 150
45 28 55 25 66 -17z m259 -14 c4 -51 -28 -94 -93 -126 -53 -26 -70 -52 -45
-68 16 -10 11 -25 -8 -25 -18 0 -42 37 -42 63 0 7 25 37 55 67 31 30 53 60 51
67 -6 14 53 65 69 60 6 -2 11 -19 13 -38z m-1616 -39 l11 -25 6 30 c5 25 8 27
14 12 12 -31 8 -111 -8 -141 -8 -15 -15 -41 -15 -57 0 -16 -5 -29 -11 -29 -5
0 -17 -17 -25 -37 -17 -39 -35 -31 -27 12 3 12 -4 44 -16 69 -18 42 -19 48 -4
53 11 4 24 -4 40 -23 l23 -29 0 28 c0 16 -9 40 -20 55 -12 15 -20 38 -18 56 1
17 -4 40 -10 52 -8 16 -8 24 1 33 13 13 38 -13 59 -59z m-739 29 c-31 -21 -43
-24 -43 -9 0 12 52 40 63 33 5 -3 -4 -14 -20 -24z m-83 12 c0 -10 -39 -59 -40
-49 0 17 20 58 30 58 5 0 10 -4 10 -9z m150 -26 c7 -9 10 -18 7 -22 -8 -7 -37
15 -37 28 0 14 16 11 30 -6z m2534 -1 c9 -8 16 -20 16 -25 0 -11 -49 22 -50
34 0 12 18 8 34 -9z m-2574 -30 c0 -9 -5 -14 -12 -12 -18 6 -21 28 -4 28 9 0
16 -7 16 -16z m1576 -68 c-3 -16 -6 -42 -6 -57 0 -22 -8 -34 -32 -49 -18 -11
-42 -20 -53 -20 -18 0 -20 7 -20 60 -1 54 1 58 15 45 24 -22 31 -18 24 10 -7
28 10 35 20 8 6 -15 8 -15 16 -3 6 8 10 29 10 45 1 29 1 29 16 10 10 -13 13
-31 10 -49z m-547 27 c8 -14 12 -15 25 -4 14 12 16 10 16 -13 0 -26 13 -35 25
-16 11 18 25 11 25 -12 1 -21 2 -20 17 7 9 17 18 24 20 18 3 -7 -3 -23 -11
-35 -9 -12 -16 -39 -16 -59 0 -25 -5 -39 -17 -43 -24 -10 -66 25 -77 62 -5 17
-17 34 -27 37 -13 4 -19 16 -19 34 0 42 21 55 39 24z m1091 -16 c0 -15 -45
-59 -77 -76 -14 -7 -20 -17 -16 -29 2 -10 -3 -25 -12 -32 -15 -12 -19 -12 -31
5 -22 30 -17 59 16 83 18 14 27 28 24 37 -8 21 54 47 78 34 10 -5 18 -15 18
-22z m-2015 -7 c-3 -5 -16 -10 -28 -10 -12 0 -44 -18 -71 -40 -64 -53 -75 -40
-13 16 38 34 57 44 84 44 20 0 32 -4 28 -10z m1085 -32 c1 -21 2 -21 11 -5 13
22 29 22 29 0 0 -14 4 -12 25 7 29 27 31 21 10 -20 -14 -28 -14 -31 5 -47 26
-23 25 -26 -9 -41 -25 -11 -34 -11 -59 2 -39 20 -54 64 -36 110 9 24 24 19 24
-6z m190 7 c7 -8 16 -15 21 -15 5 0 9 7 9 15 0 24 20 17 30 -11 25 -64 -2
-104 -72 -104 -43 0 -56 14 -34 39 20 22 20 41 0 69 -14 21 -14 22 9 22 14 0
30 -7 37 -15z m-514 -49 c6 -27 -4 -52 -34 -80 -43 -38 -57 15 -19 71 26 39
44 42 53 9z m1434 -9 c0 -13 -7 -32 -15 -43 -19 -25 -19 -68 0 -84 12 -10 19
-10 27 -2 24 24 38 13 38 -31 0 -23 7 -53 16 -65 21 -30 2 -28 -36 5 -29 24
-30 28 -16 38 26 20 18 35 -19 35 -47 0 -70 34 -62 93 8 59 67 107 67 54z
m-540 -33 c8 -24 9 -39 2 -46 -15 -15 -29 -3 -36 33 -11 58 16 68 34 13z
m-1480 1 l23 -25 -21 0 c-36 0 -26 -35 18 -70 29 -23 40 -39 40 -59 0 -36 -34
-71 -68 -71 l-27 -1 32 -27 c42 -36 48 -62 23 -90 -23 -24 -37 -27 -74 -12
-35 13 -33 3 9 -41 33 -33 35 -38 24 -62 -7 -15 -21 -30 -33 -33 -29 -9 -36
-24 -23 -45 10 -15 8 -23 -10 -41 -27 -26 -40 -19 -21 12 12 20 10 25 -29 59
-44 37 -54 69 -30 90 16 13 37 -4 37 -30 0 -28 25 -42 44 -24 20 20 20 39 1
55 -8 7 -15 18 -15 25 0 8 -11 27 -25 43 -28 34 -35 92 -10 92 8 0 27 -16 42
-35 29 -36 63 -47 63 -20 0 8 -15 35 -34 60 -40 52 -52 83 -38 97 8 8 20 3 42
-16 36 -30 55 -33 64 -9 5 12 -7 29 -39 58 -49 46 -58 82 -29 123 20 28 35 28
64 -3z m1842 8 c27 -24 22 -41 -17 -60 -19 -9 -38 -25 -41 -36 -8 -24 0 -31
23 -19 29 15 117 41 121 37 13 -13 -13 -56 -48 -79 -39 -26 -58 -62 -46 -91 9
-24 23 -18 34 14 6 17 20 32 34 36 12 4 31 14 40 22 18 16 38 10 38 -13 0 -7
-18 -33 -40 -56 -47 -47 -52 -91 -13 -96 17 -3 25 5 37 32 23 54 76 74 96 35
10 -18 6 -26 -34 -62 -25 -22 -46 -49 -46 -58 0 -26 -18 -32 -25 -9 -4 14 -15
20 -36 20 -26 0 -32 6 -53 53 -14 33 -32 57 -49 64 -19 9 -28 22 -32 50 -4 21
-17 59 -31 84 -13 26 -24 55 -24 66 0 26 54 76 89 82 3 1 13 -6 23 -16z
m-1492 -41 c0 -16 9 -37 20 -47 26 -23 25 -49 -1 -87 -14 -19 -19 -38 -16 -56
3 -16 -1 -35 -9 -46 -8 -11 -14 -38 -14 -60 0 -50 -30 -146 -46 -146 -6 0 -17
6 -23 14 -9 10 -8 16 4 26 21 17 19 42 -6 74 -26 34 -18 56 20 56 42 0 45 12
11 56 -35 47 -40 94 -10 94 11 0 20 -6 20 -14 0 -19 19 -31 31 -19 6 6 4 15
-6 23 -28 24 -16 160 15 160 6 0 10 -13 10 -28z m340 -21 c0 -15 -8 -35 -17
-43 -22 -19 -92 -42 -101 -33 -11 11 22 59 50 72 14 7 31 20 38 28 17 20 30
10 30 -24z m690 24 c18 -21 -2 -65 -30 -65 -16 0 -20 7 -20 33 0 49 24 64 50
32z m-904 -29 c7 -18 -14 -58 -27 -51 -10 7 -12 48 -2 58 11 11 23 8 29 -7z
m374 -31 c0 -16 -13 -35 -41 -57 -23 -18 -47 -45 -55 -60 -17 -32 -30 -35 -42
-10 -13 25 3 71 38 115 25 30 38 37 66 37 29 0 34 -3 34 -25z m256 9 c12 -3
31 -22 42 -42 11 -20 34 -50 51 -66 47 -45 40 -116 -11 -116 -19 0 -24 15 -8
25 25 16 9 45 -39 69 -38 20 -53 35 -70 71 -28 60 -20 74 35 59z m156 -19 c12
-14 41 -36 64 -50 50 -29 61 -51 38 -76 -24 -27 -44 -24 -44 7 0 20 -8 28 -37
40 -47 19 -83 52 -83 74 0 38 31 40 62 5z m255 -1 c38 -28 41 -59 9 -78 -14
-9 -20 -7 -30 8 -6 10 -19 26 -28 35 -23 20 -24 61 -1 61 9 0 31 -12 50 -26z
m-527 -9 c0 -43 -21 -72 -70 -99 -52 -28 -62 -42 -53 -76 5 -20 4 -21 -14 -12
-42 23 -47 39 -24 77 12 20 21 42 21 50 0 8 14 30 31 50 26 29 38 35 70 35 35
0 39 -3 39 -25z m457 -27 c30 -28 30 -63 -2 -84 -26 -17 -55 -10 -36 9 17 17
13 45 -9 57 -11 6 -20 17 -20 25 0 22 40 18 67 -7z m-914 -23 c6 -15 -65 -79
-77 -68 -12 12 -6 37 16 60 24 26 53 30 61 8z m-105 -37 c-2 -22 -9 -34 -20
-36 -15 -3 -18 4 -18 32 0 30 4 36 21 36 17 0 20 -5 17 -32z m1312 -7 c0 -17
-47 -81 -60 -81 -27 0 2 102 32 113 14 5 28 -11 28 -32z m-1080 0 c17 -33 12
-45 -35 -74 -41 -26 -50 -37 -46 -59 2 -13 -16 -9 -29 7 -19 23 -3 64 39 107
44 43 56 46 71 19z m444 -31 c25 -27 46 -54 46 -59 0 -6 18 -22 40 -36 48 -30
50 -47 10 -87 -36 -35 -57 -27 -62 25 -3 28 -11 36 -62 64 -83 43 -110 84 -66
98 11 3 20 15 20 26 0 32 25 22 74 -31z m458 13 c32 -29 18 -83 -23 -83 -12 0
-16 6 -12 20 3 11 1 20 -5 20 -13 0 -25 36 -17 50 9 15 36 12 57 -7z m-204
-67 c28 -30 52 -59 52 -63 0 -21 -33 -53 -56 -53 -21 0 -23 4 -18 24 4 19 -2
29 -33 52 -21 15 -39 29 -41 30 -1 1 0 20 4 42 8 51 17 47 92 -32z m-372 20
c10 -41 1 -60 -38 -79 -52 -26 -83 -70 -68 -98 14 -26 8 -33 -24 -25 -17 4
-28 17 -36 41 -14 41 -1 71 36 85 13 5 30 22 36 37 18 43 39 63 64 63 17 0 25
-7 30 -24z m488 -2 c19 -19 20 -49 1 -89 l-13 -30 -1 28 c-1 19 -8 30 -25 36
-28 11 -40 39 -25 57 15 19 44 18 63 -2z m-696 -17 c2 -11 -8 -32 -23 -47 -21
-22 -26 -36 -23 -58 3 -24 1 -29 -11 -25 -44 16 -55 83 -20 127 25 32 72 33
77 3z m999 7 c3 -9 -6 -39 -23 -69 -24 -45 -26 -55 -15 -69 22 -27 41 -18 61
29 20 47 36 57 47 28 8 -21 -14 -103 -34 -125 -11 -12 -14 -28 -10 -53 6 -39
2 -43 -25 -18 -12 10 -18 30 -18 56 0 30 -6 45 -30 67 -42 39 -39 109 5 153
21 21 34 21 42 1z m-1363 -3 c7 -11 -20 -48 -29 -39 -9 8 4 48 15 48 5 0 11
-4 14 -9z m86 -33 c0 -13 -9 -38 -21 -57 -16 -27 -23 -31 -30 -20 -10 16 -2
67 13 87 17 20 38 14 38 -10z m1173 -9 c-8 -98 -15 -112 -34 -63 -6 19 -6 37
2 61 12 38 35 39 32 2z m447 -17 c0 -25 -15 -53 -54 -107 -11 -14 -12 -25 -5
-35 8 -13 12 -12 25 5 54 72 74 82 74 37 0 -18 -11 -38 -30 -57 -16 -16 -30
-37 -30 -47 0 -24 -21 -23 -27 2 -3 10 -16 26 -30 35 -52 35 -46 77 25 162 38
46 52 47 52 5z m-825 -32 c15 -30 37 -56 55 -65 37 -19 42 -66 8 -89 -27 -19
-38 -12 -38 24 0 20 -6 31 -20 35 -38 12 -50 34 -50 91 0 30 4 54 10 54 5 0
21 -22 35 -50z m289 14 c19 -18 21 -45 4 -62 -15 -15 -38 -16 -38 0 0 6 -7 20
-16 30 -14 14 -14 20 -4 33 16 19 34 19 54 -1z m-1174 -42 c0 -37 -15 -60 -24
-37 -8 21 -8 60 0 68 12 12 24 -4 24 -31z m650 28 c0 -5 11 -12 25 -16 14 -3
39 -23 55 -45 17 -21 40 -41 50 -44 24 -8 42 -38 35 -57 -9 -23 -65 -52 -77
-40 -8 8 -7 16 2 27 22 26 -1 61 -46 68 -64 11 -106 71 -72 105 15 15 28 16
28 2z m-415 -30 c7 -23 -17 -67 -41 -77 -8 -3 -14 -18 -14 -35 0 -35 -19 -34
-37 2 -15 31 -1 67 40 102 39 33 44 34 52 8z m842 -22 c29 -27 29 -59 1 -84
-12 -10 -18 -13 -13 -5 5 9 -4 24 -31 46 -33 28 -37 35 -25 49 18 22 40 20 68
-6z m-477 -18 c0 -36 35 -76 74 -86 18 -4 32 -18 41 -40 9 -22 25 -38 50 -48
31 -13 36 -20 33 -42 -2 -15 -13 -33 -25 -42 -22 -14 -23 -13 -23 16 0 33 -34
65 -83 77 -33 9 -56 36 -86 102 -14 30 -35 42 -27 15 5 -15 -2 -31 -29 -60
-19 -22 -35 -46 -35 -55 0 -25 -11 -47 -25 -47 -53 0 -38 134 17 152 7 3 13
20 13 39 0 35 4 38 93 48 7 0 12 -11 12 -29z m930 -34 c0 -33 -22 -72 -53 -95
-16 -11 -18 -22 -14 -65 4 -28 4 -44 1 -36 -4 8 -15 34 -26 57 l-19 41 32 64
c17 35 36 69 41 76 16 19 38 -5 38 -42z m-1146 4 c9 -31 7 -35 -31 -69 -35
-30 -41 -41 -36 -63 7 -35 -9 -36 -36 -2 -22 29 -27 59 -11 69 6 3 10 14 10
23 0 19 69 83 85 78 5 -1 14 -18 19 -36z m831 30 c4 -7 12 -7 25 0 48 25 64 3
30 -40 -29 -37 -24 -49 6 -17 28 31 44 28 44 -8 0 -13 5 -27 10 -30 6 -3 10
-23 10 -44 0 -29 -7 -44 -36 -72 -31 -30 -34 -38 -29 -69 6 -34 6 -34 -12 -17
-26 25 -23 108 4 145 25 35 37 69 25 76 -5 3 -12 -8 -16 -24 -11 -55 -56 -30
-56 31 0 20 -7 42 -15 49 -8 7 -15 16 -15 21 0 12 17 11 25 -1z m-1117 -23 c2
-9 -11 -36 -29 -58 -29 -36 -33 -39 -42 -23 -7 13 -4 29 13 61 24 45 52 55 58
20z m-267 -14 c6 -16 17 -36 26 -45 14 -16 14 -20 -1 -43 -9 -13 -26 -27 -39
-30 -25 -7 -77 9 -77 23 0 19 14 21 31 6 20 -18 46 -13 55 10 3 8 -4 28 -17
45 -21 29 -21 61 1 61 6 0 15 -12 21 -27z m1071 -57 c2 -13 16 -27 36 -35 26
-12 32 -20 32 -46 0 -32 -31 -75 -54 -75 -8 0 -11 10 -8 28 3 23 -4 36 -33 63
-24 23 -34 40 -31 53 3 10 -2 32 -10 48 -8 16 -12 33 -8 39 9 15 72 -48 76
-75z m283 34 c19 -37 19 -111 0 -136 -14 -18 -15 -16 -9 27 4 32 2 50 -8 60
-24 25 -47 67 -41 73 15 15 44 3 58 -24z m-1275 6 c0 -8 -5 -18 -11 -22 -14
-8 -33 11 -25 25 10 16 36 13 36 -3z m76 0 c3 -8 4 -22 2 -31 -3 -14 -5 -14
-22 -2 -12 9 -17 20 -13 31 8 20 26 21 33 2z m1054 -61 c0 -14 8 -29 20 -35
13 -7 20 -21 20 -40 0 -43 -15 -45 -39 -5 -11 20 -27 38 -36 41 -18 7 -20 35
-3 52 20 20 38 14 38 -13z m-1538 -97 c5 -12 1 -25 -12 -38 -29 -29 -43 -25
-35 10 5 23 1 37 -19 63 -14 19 -26 45 -26 58 0 21 5 19 43 -25 23 -27 45 -58
49 -68z m2098 73 c0 -16 -9 -40 -20 -54 -12 -14 -20 -40 -20 -61 0 -46 -15
-46 -30 -1 -13 40 -4 77 30 126 25 34 40 30 40 -10z m-1382 -24 c2 -16 -5 -38
-17 -53 -23 -29 -20 -44 10 -44 15 0 19 -7 19 -35 0 -64 -50 -113 -63 -63 -5
16 1 30 18 48 26 28 24 40 -7 40 -14 0 -18 8 -18 40 0 76 50 133 58 67z m-100
2 c3 -18 -57 -91 -69 -84 -17 11 -9 52 16 79 26 28 48 30 53 5z m-200 -38 c-2
-20 -8 -25 -25 -24 -17 2 -23 -2 -23 -18 0 -25 -17 -59 -30 -59 -6 0 -10 11
-10 25 0 18 -9 31 -30 43 -38 22 -33 38 12 35 26 -2 41 4 58 22 18 19 26 22
37 13 8 -6 13 -23 11 -37z m1236 3 c8 -29 -8 -55 -23 -38 -4 5 -11 26 -14 47
-5 33 -4 36 12 27 10 -5 22 -21 25 -36z m-1164 3 c0 -12 -5 -29 -10 -37 -9
-13 -11 -13 -20 0 -13 20 -13 43 2 58 15 15 28 6 28 -21z m400 -38 c0 -35 -4
-41 -46 -65 -38 -22 -48 -25 -55 -13 -13 20 -12 24 14 56 13 15 31 41 41 56
14 23 20 26 32 16 8 -6 14 -29 14 -50z m481 19 c12 -24 33 -55 46 -70 19 -20
24 -33 19 -53 -4 -14 -11 -23 -16 -20 -6 4 -8 11 -4 16 8 13 -23 47 -57 65
-27 14 -41 50 -32 85 8 30 21 23 44 -23z m807 30 c21 -21 13 -49 -23 -85 -39
-39 -41 -45 -20 -63 21 -17 19 -30 -5 -30 -49 0 -48 78 2 135 16 19 27 39 23
45 -9 14 8 13 23 -2z m-2090 -26 c2 -12 12 -26 22 -32 10 -5 28 -26 40 -46 19
-29 21 -40 11 -60 -7 -16 -19 -24 -36 -24 -22 0 -25 -4 -25 -33 0 -38 -15 -57
-44 -57 -20 1 -20 1 -3 14 26 20 21 46 -18 82 -19 17 -35 37 -35 43 0 18 25
13 45 -9 22 -24 58 -26 76 -4 12 14 9 20 -18 43 -31 26 -53 66 -53 97 0 24 35
12 38 -14z m992 -17 c0 -15 -16 -38 -45 -63 -25 -22 -45 -47 -45 -56 0 -23
-34 -16 -38 7 -7 35 8 67 38 82 17 9 30 22 30 30 0 7 7 21 16 30 20 20 44 4
44 -30z m85 9 c45 -30 55 -42 55 -65 0 -22 -5 -29 -19 -29 -28 0 -81 48 -81
73 0 11 -7 29 -17 39 -27 30 3 21 62 -18z m735 -5 c9 -16 8 -25 -4 -42 -9 -12
-23 -33 -33 -45 -14 -19 -15 -29 -6 -53 9 -23 8 -29 -2 -29 -20 0 -32 22 -38
72 -6 43 -4 51 24 83 36 41 44 43 59 14z m-1490 -54 c19 -23 19 -90 0 -90 -10
0 -15 11 -16 30 -1 17 -5 40 -9 53 -8 25 6 30 25 7z m1138 -1 c15 -10 22 -24
20 -37 -4 -25 -38 -37 -38 -13 0 9 -8 16 -19 16 -21 0 -31 17 -23 38 6 17 33
15 60 -4z m-913 -14 c9 -28 -16 -75 -40 -75 -28 0 -30 35 -5 68 25 32 36 34
45 7z m999 -9 c19 -21 18 -62 -1 -69 -8 -2 -13 6 -13 22 0 13 -4 28 -10 31
-12 8 -13 35 -2 35 5 0 17 -9 26 -19z m107 -7 c7 -20 6 -32 -5 -49 -8 -12 -17
-38 -21 -57 -8 -42 -69 -98 -79 -72 -10 25 -7 32 25 69 24 27 30 41 25 61 -7
27 15 74 34 74 6 0 15 -12 21 -26z m-1451 -31 c38 -43 38 -73 0 -116 -16 -19
-30 -41 -30 -49 0 -18 -20 -38 -37 -38 -9 0 -11 8 -7 25 4 16 0 34 -10 50 -16
25 -21 55 -9 55 4 0 17 -10 30 -21 18 -18 25 -20 38 -9 23 19 18 39 -21 86
-19 24 -33 48 -30 53 10 16 45 0 76 -36z m1680 19 c0 -9 -12 -35 -25 -56 -19
-32 -23 -48 -18 -83 7 -51 0 -54 -27 -10 -30 48 -26 82 15 124 19 20 35 40 35
45 0 5 5 6 10 3 6 -3 10 -14 10 -23z m-1430 -43 c0 -30 -17 -31 -39 -3 -16 21
-19 30 -10 41 10 11 15 11 30 -3 11 -10 19 -25 19 -35z m352 15 c-2 -16 -10
-33 -19 -39 -36 -23 -53 -47 -53 -76 0 -27 -2 -30 -15 -19 -23 19 -18 63 10
90 14 13 25 34 25 46 0 13 7 24 18 27 29 8 37 1 34 -29z m273 -1 c46 -32 54
-43 55 -70 0 -40 -10 -47 -39 -26 -16 11 -21 23 -18 38 3 17 -4 29 -25 45 -15
11 -28 16 -28 10 0 -6 -13 -16 -29 -21 -32 -11 -51 -45 -51 -89 0 -38 -23 -40
-47 -4 -17 26 -16 27 10 48 15 12 27 32 27 44 0 15 11 28 38 41 20 10 41 19
45 20 5 1 33 -16 62 -36z m183 21 c12 -8 22 -26 22 -39 0 -13 9 -40 21 -59 21
-37 23 -77 2 -83 -23 -8 -63 68 -63 119 0 26 -4 50 -10 53 -12 7 -13 25 -2 25
4 0 18 -7 30 -16z m-64 -20 c18 -17 21 -40 6 -49 -8 -5 -40 43 -40 60 0 10 19
5 34 -11z m516 -42 c0 -9 -7 -26 -15 -36 -18 -24 -19 -68 -3 -84 15 -15 3 -16
-23 -2 -25 14 -24 52 2 107 20 42 39 49 39 15z m260 3 c0 -13 -13 -40 -30 -58
-32 -37 -37 -56 -18 -75 8 -8 9 -15 1 -23 -16 -16 -43 17 -43 56 0 25 8 40 33
60 17 15 35 36 39 46 10 26 18 24 18 -6z m-538 -10 c7 -16 8 -35 2 -57 -12
-40 -28 -46 -31 -10 -1 15 -5 42 -8 60 -6 26 -4 32 9 32 9 0 22 -11 28 -25z
m-1112 -14 c7 -14 6 -29 -5 -54 -14 -34 -31 -47 -62 -47 -13 0 -13 3 2 26 9
14 16 37 15 52 -3 40 -2 42 20 42 10 0 24 -9 30 -19z m223 -5 c3 -8 0 -32 -7
-55 -9 -32 -14 -39 -24 -29 -15 15 -15 38 -2 72 10 29 25 34 33 12z m107 4 c0
-6 -7 -25 -16 -42 -9 -17 -13 -40 -10 -54 7 -26 -3 -31 -22 -12 -20 20 -14 69
11 93 25 26 37 30 37 15z m866 -24 c7 -17 -25 -68 -37 -60 -13 8 -11 48 3 62
16 16 27 15 34 -2z m-686 -25 c0 -18 -8 -35 -18 -43 -28 -19 -44 -57 -38 -84
8 -29 -7 -31 -34 -4 -26 26 -25 46 3 80 12 16 30 40 40 54 25 35 47 34 47 -3z
m-432 -21 c2 -19 13 -47 24 -63 17 -24 20 -42 19 -106 -2 -89 14 -241 35 -322
21 -86 9 -202 -27 -254 -15 -22 -31 -60 -34 -85 -4 -25 -13 -56 -21 -70 -13
-25 -13 -25 -14 13 0 23 -4 36 -10 32 -5 -3 -10 -15 -10 -26 0 -11 -9 -45 -20
-76 -11 -32 -17 -65 -14 -75 3 -10 -4 -33 -15 -52 -12 -18 -21 -43 -21 -54 0
-12 -20 -46 -45 -77 -44 -54 -43 -71 3 -39 32 22 37 13 11 -19 -13 -18 -30
-27 -48 -27 -16 0 -44 -11 -64 -24 -19 -13 -43 -26 -54 -28 -10 -2 -18 -10
-19 -18 -2 -46 -18 -80 -35 -80 -25 0 -26 44 -1 62 11 8 19 28 20 51 3 40 -12
51 -21 16 -6 -24 -27 -17 -27 10 0 22 19 41 42 41 20 0 23 11 7 27 -6 6 -9 21
-7 34 3 22 7 24 58 21 44 -3 61 1 82 17 26 21 49 86 47 138 0 21 -3 17 -13
-20 -15 -55 -31 -76 -46 -61 -7 7 -5 26 6 57 16 47 13 84 -6 72 -5 -3 -10 -18
-10 -33 0 -44 -20 -102 -35 -102 -23 0 -25 14 -9 59 21 62 30 136 16 127 -7
-4 -12 -24 -13 -44 0 -20 -4 -46 -9 -57 -7 -15 -9 -9 -9 25 -1 55 23 178 55
285 45 150 47 179 30 314 -9 67 -16 152 -16 187 0 65 0 65 34 79 19 8 37 23
40 33 3 10 26 35 51 55 29 25 45 46 45 61 0 51 43 48 48 -4z m70 0 c3 -30 2
-32 -12 -21 -19 16 -22 65 -3 59 6 -3 13 -20 15 -38z m912 -6 c0 -8 -7 -14
-15 -14 -10 0 -15 10 -15 26 0 22 2 25 15 14 8 -7 15 -19 15 -26z m-370 21 c0
-16 -29 -66 -56 -95 -18 -19 -34 -44 -36 -55 -2 -11 -10 -20 -18 -20 -11 0
-15 12 -15 45 0 43 2 46 42 64 23 11 47 30 54 43 11 20 29 32 29 18z m180 -14
c17 -32 12 -58 -15 -75 -13 -9 -27 -16 -30 -16 -3 0 -5 25 -5 55 0 48 2 55 20
55 10 0 24 -9 30 -19z m-106 -22 c26 -21 36 -59 14 -59 -6 0 -3 -6 8 -14 15
-11 16 -17 7 -27 -26 -26 -66 18 -76 84 -7 43 6 48 47 16z m673 -29 c-41 -49
-28 -62 54 -54 38 4 69 3 69 -1 0 -4 -10 -20 -21 -37 -16 -22 -19 -32 -10 -41
15 -15 14 -37 -2 -37 -8 0 -22 9 -31 19 -14 15 -15 24 -7 40 16 29 15 31 -27
31 -45 0 -62 14 -62 51 0 33 38 85 53 70 6 -6 1 -20 -16 -41z m-499 16 c3 -12
-1 -17 -10 -14 -7 3 -15 13 -16 22 -3 12 1 17 10 14 7 -3 15 -13 16 -22z m372
4 c9 -16 8 -22 -5 -26 -21 -8 -39 10 -32 30 9 22 24 20 37 -4z m-1554 -24 c3
-13 4 -37 2 -52 -2 -23 -9 -30 -30 -32 -31 -4 -36 9 -13 28 11 9 14 22 9 46
-5 27 -3 34 10 34 8 0 18 -11 22 -24z m142 -17 c-2 -18 -10 -25 -33 -27 -28
-4 -29 -3 -14 15 9 10 19 27 23 37 9 26 29 6 24 -25z m1513 -209 c9 -32 12
-101 10 -245 -7 -355 -6 -399 8 -480 22 -128 51 -175 108 -175 22 0 26 -7 38
-68 5 -24 18 -40 46 -58 40 -25 43 -31 33 -58 -9 -23 -22 -20 -26 7 -4 30 -44
36 -53 7 -10 -32 -24 -13 -18 25 6 36 -12 95 -29 95 -6 0 -8 -10 -4 -22 3 -13
3 -40 -1 -60 -4 -31 -10 -38 -27 -38 -33 0 -101 82 -124 148 -6 18 -20 45 -32
59 -13 17 -20 41 -20 69 0 23 -4 46 -10 49 -5 3 -10 24 -10 46 0 21 -4 39 -10
39 -5 0 -10 8 -10 18 0 10 -11 33 -25 52 -14 18 -28 49 -31 69 -4 19 -16 55
-26 79 -15 33 -18 56 -14 91 4 25 8 75 10 111 6 92 24 279 30 319 3 19 2 39
-3 45 -11 14 -23 91 -15 99 3 3 48 -36 99 -86 74 -73 96 -101 106 -137z m-335
202 c7 -4 19 -42 29 -85 17 -75 17 -80 -5 -192 -12 -64 -35 -155 -51 -203 -36
-104 -35 -162 7 -287 30 -91 43 -198 25 -209 -6 -4 -11 -23 -11 -41 0 -27 6
-38 28 -52 45 -28 52 -42 45 -92 -5 -44 -5 -45 11 -26 16 20 16 20 36 -4 21
-24 27 -71 10 -71 -5 0 -10 7 -10 15 0 8 -6 15 -12 16 -10 0 -10 2 0 6 17 7
15 23 -4 23 -13 0 -15 -7 -10 -30 7 -35 -18 -44 -29 -9 -5 16 -10 18 -21 8
-12 -10 -13 -6 -8 19 8 39 -40 142 -66 142 -28 0 -41 24 -45 87 -3 33 -14 81
-26 108 -17 38 -23 78 -28 175 l-7 125 -13 -75 c-7 -41 -22 -118 -32 -170 -11
-52 -19 -113 -18 -135 1 -22 -5 -62 -14 -88 -10 -26 -17 -57 -17 -67 0 -11 -4
-20 -10 -20 -17 0 -11 54 10 95 18 35 19 45 9 82 -10 35 -6 69 26 246 36 199
36 210 32 393 -2 104 -6 198 -8 208 -3 15 3 21 30 27 21 4 48 23 71 48 37 40
54 48 76 33z m288 -11 c9 -14 -4 -41 -19 -41 -18 0 -28 17 -21 35 6 17 32 20
40 6z m-416 -25 c3 -12 -1 -17 -10 -14 -7 3 -15 13 -16 22 -3 12 1 17 10 14 7
-3 15 -13 16 -22z m-755 -177 c-8 -133 -11 -150 -21 -126 -19 44 -36 215 -24
240 5 12 15 36 22 52 12 29 13 29 22 9 6 -14 7 -77 1 -175z m199 121 l50 -49
-7 -88 c-4 -48 -8 -144 -7 -213 0 -112 3 -132 27 -195 28 -71 48 -173 23 -112
-13 29 -35 39 -23 10 4 -10 11 -42 15 -71 5 -30 12 -63 16 -74 7 -24 -4 -88
-16 -88 -4 0 -17 28 -29 63 l-20 62 5 -56 c5 -43 2 -58 -10 -68 -22 -18 -25
-14 -36 54 -13 81 -20 80 -20 -2 0 -62 -4 -77 -33 -125 -23 -39 -37 -78 -46
-137 -11 -67 -17 -81 -32 -81 -26 0 -32 16 -12 36 10 10 19 27 20 38 0 12 4
31 8 44 6 19 4 22 -19 22 -25 0 -27 3 -24 33 3 28 7 32 31 32 16 1 32 7 37 15
14 23 32 117 27 142 -3 17 -5 14 -6 -10 -2 -45 -25 -98 -50 -111 -25 -14 -35
0 -27 35 6 23 26 34 26 14 0 -5 3 -10 8 -10 14 0 12 440 -3 510 -7 36 -18 103
-24 150 -6 47 -16 112 -22 146 -9 50 -8 67 5 97 15 36 17 37 67 37 49 0 55 -3
101 -50z m318 30 c0 -26 -20 -68 -36 -74 -17 -6 -29 33 -15 47 6 6 11 19 11
29 0 11 7 18 20 18 13 0 20 -7 20 -20z m123 8 c5 -15 -10 -48 -22 -48 -4 0 -6
14 -3 30 4 31 17 40 25 18z m345 -125 c5 -128 -29 -372 -62 -448 -45 -101 -52
-44 -19 160 19 121 20 133 30 260 5 61 13 117 17 124 17 27 30 -10 34 -96z
m-1357 51 c18 -40 20 -62 17 -189 -3 -138 -10 -175 -27 -146 -10 16 -30 164
-33 246 -5 144 8 170 43 89z m733 17 l28 -29 -16 -50 c-13 -38 -15 -62 -8
-103 9 -61 0 -203 -17 -276 -13 -50 -36 -91 -47 -80 -3 3 -10 63 -14 134 -5
70 -12 169 -16 219 -10 138 7 214 50 214 7 0 25 -13 40 -29z m882 -7 c-5 -14
-9 -15 -19 -5 -9 9 -9 14 3 21 18 11 24 6 16 -16z m-662 -13 c3 -4 -3 -16 -14
-26 -19 -18 -20 -17 -20 8 0 26 22 38 34 18z m96 -62 c3 -35 9 -71 14 -78 5
-8 9 -38 7 -65 -4 -80 -29 -238 -40 -249 -18 -18 -47 120 -62 289 -11 134 -8
147 36 164 34 14 40 6 45 -61z m637 -29 c19 -56 16 -252 -7 -375 -11 -60 -20
-125 -20 -145 0 -20 9 -63 20 -95 11 -32 20 -66 20 -76 0 -10 11 -43 24 -74
29 -65 17 -73 -20 -14 -14 22 -27 39 -30 37 -8 -9 17 -72 38 -95 12 -12 17
-23 12 -23 -6 0 -24 15 -42 33 -24 24 -37 53 -52 111 -24 94 -25 169 -6 331
23 190 29 326 17 369 -5 22 -8 43 -5 48 12 19 39 1 51 -32z m-791 -11 c7 -6
21 -9 31 -7 17 3 18 -11 24 -187 6 -156 11 -204 30 -270 31 -107 29 -231 -7
-318 -30 -74 -30 -85 -2 -142 21 -42 21 -48 7 -73 -14 -26 -18 -27 -107 -30
-88 -3 -92 -2 -92 18 0 12 -5 31 -11 42 -6 11 -12 48 -14 82 -1 33 -6 129 -10
211 -6 136 -5 156 14 215 19 59 20 80 15 240 -8 214 -5 224 62 227 26 1 53 -2
60 -8z m-504 -455 c-3 -81 0 -121 12 -154 20 -56 20 -94 2 -109 -8 -6 -19 -25
-26 -41 -10 -23 -18 -30 -39 -29 -14 1 -34 -2 -43 -6 -15 -6 -14 1 8 50 14 31
30 84 34 118 5 34 13 78 19 97 6 19 11 70 11 113 0 59 3 78 13 74 9 -3 11 -32
9 -113z m968 -60 c13 -40 28 -270 19 -286 -4 -7 -16 -6 -35 3 -24 12 -30 22
-37 69 -16 104 3 250 33 250 4 0 14 -16 20 -36z m-230 -161 c9 -80 9 -120 2
-142 -11 -31 -3 -82 14 -88 5 -2 15 10 21 27 12 32 40 40 50 15 3 -9 -2 -24
-11 -34 -23 -26 -20 -31 19 -31 29 0 36 -4 41 -25 9 -35 -3 -75 -22 -75 -12 0
-14 5 -9 18 15 35 11 57 -13 60 -25 4 -41 -23 -23 -41 17 -17 13 -37 -9 -37
-16 0 -20 7 -20 33 0 23 -8 41 -25 57 -24 22 -37 16 -14 -7 14 -14 8 -65 -8
-71 -9 -2 -13 7 -13 27 0 33 -18 51 -30 30 -5 -7 -6 -26 -3 -41 4 -21 2 -28
-11 -28 -19 0 -22 55 -5 94 9 20 9 29 -1 41 -7 8 -9 23 -5 32 6 16 9 15 27 -7
l21 -25 -7 40 c-21 110 -11 326 13 299 4 -5 14 -59 21 -121z m-855 32 c-9 -43
-18 -81 -20 -84 -13 -12 -3 105 11 135 9 19 18 33 20 31 2 -2 -3 -39 -11 -82z
m450 -180 c10 -90 -1 -80 -20 19 -16 85 -19 155 -8 207 6 27 9 14 14 -61 3
-52 9 -126 14 -165z m718 160 c22 -72 26 -95 17 -95 -16 0 -27 26 -33 75 -3
28 -9 59 -13 70 -5 14 -4 17 3 10 6 -5 17 -32 26 -60z m-815 -144 c2 -34 7
-49 14 -45 7 5 9 -2 4 -20 -6 -25 6 -36 19 -16 10 15 35 12 35 -5 0 -8 -8 -15
-17 -15 -32 0 -53 -31 -53 -77 0 -25 -5 -43 -11 -43 -7 0 -9 10 -5 26 6 23 -1
59 -25 122 l-9 23 -26 -30 c-25 -31 -25 -51 1 -51 26 0 37 -37 21 -67 l-15
-28 -1 37 c0 41 -11 52 -40 43 -17 -6 -20 -12 -14 -41 5 -26 3 -34 -9 -34 -21
0 -27 34 -11 66 8 14 14 43 14 63 0 55 21 87 53 83 19 -2 27 2 27 13 0 25 20
57 33 52 7 -2 13 -27 15 -56z m-378 2 c0 -27 -3 -34 -11 -26 -7 7 -9 23 -5 37
9 37 16 32 16 -11z m1075 -22 c-11 -10 -35 11 -35 30 0 21 0 21 19 -2 11 -13
18 -26 16 -28z m141 34 c-21 -16 -56 -20 -56 -7 0 16 13 22 44 22 29 -1 30 -1
12 -15z m-1673 -62 c-6 -45 -44 -123 -66 -137 -12 -7 -21 -5 -37 9 -23 21 -17
32 20 37 18 2 28 13 38 43 25 71 31 85 41 85 6 0 7 -16 4 -37z m497 7 c0 -23
-10 -41 -42 -70 -24 -22 -46 -40 -50 -40 -11 0 -10 88 1 95 5 3 12 1 16 -5 12
-19 34 -10 50 20 20 38 25 38 25 0z m80 12 c0 -10 -11 -33 -24 -51 -14 -18
-28 -56 -32 -84 -8 -51 -8 -51 -13 -17 -5 26 -11 36 -28 38 -19 3 -22 -2 -25
-40 l-4 -43 -12 29 c-16 37 4 71 48 81 22 5 32 14 36 33 10 47 23 72 39 72 8
0 15 -8 15 -18z m1120 -39 c0 -18 -4 -33 -8 -33 -5 0 -9 20 -9 45 0 28 4 41 9
33 4 -7 8 -28 8 -45z m-36 31 c9 -23 7 -44 -3 -44 -5 0 -11 14 -13 30 -5 32 6
41 16 14z m-1555 -8 c9 -11 8 -15 -5 -20 -10 -4 -15 -16 -12 -35 2 -27 -23
-71 -42 -71 -11 0 -32 79 -24 93 26 46 61 60 83 33z m1509 -16 c6 -48 24 -80
46 -81 21 0 21 0 -1 -9 -26 -10 -28 -22 -12 -52 9 -17 8 -19 -8 -16 -13 2 -20
15 -24 43 -3 22 -13 54 -22 72 -9 18 -17 42 -17 53 0 31 34 22 38 -10z m510
18 c7 -7 12 -27 12 -44 0 -37 16 -57 71 -85 34 -17 39 -24 39 -55 0 -28 -3
-35 -17 -32 -10 2 -19 14 -21 28 -3 24 -3 25 12 5 13 -17 15 -17 16 -4 0 21
-26 43 -41 34 -7 -5 -9 -22 -5 -46 5 -30 3 -39 -8 -39 -11 0 -13 9 -9 36 5 28
1 40 -20 62 -20 22 -77 130 -77 147 0 10 36 5 48 -7z m-60 -34 c15 -10 22 -24
22 -47 0 -17 3 -56 6 -84 5 -37 3 -53 -5 -53 -6 0 -11 17 -11 40 0 30 -5 43
-23 55 -28 18 -71 91 -62 105 8 12 39 5 73 -16z m-1456 -51 c10 -9 18 -23 18
-31 0 -9 -6 -7 -18 8 -27 33 -46 18 -38 -31 6 -34 4 -39 -14 -39 -16 0 -20 7
-20 37 0 35 22 73 43 73 6 0 19 -7 29 -17z m318 -12 c13 -25 13 -81 0 -81 -5
0 -10 15 -10 34 0 42 -16 55 -38 32 -16 -16 -16 -19 0 -47 17 -29 17 -30 0
-27 -17 3 -29 64 -18 94 8 21 54 17 66 -5z m815 -27 c17 -37 14 -69 -8 -61 -6
2 -12 15 -13 28 -1 13 -5 37 -9 53 -11 39 7 27 30 -20z m-305 -10 c0 -8 -4
-12 -10 -9 -5 3 -10 13 -10 21 0 8 5 12 10 9 6 -3 10 -13 10 -21z m-947 -4
c-3 -11 -9 -17 -14 -15 -10 7 -1 35 11 35 5 0 6 -9 3 -20z m107 4 c0 -8 -4
-12 -10 -9 -5 3 -10 10 -10 16 0 5 5 9 10 9 6 0 10 -7 10 -16z m150 -5 c0 -11
-4 -17 -10 -14 -5 3 -10 13 -10 21 0 8 5 14 10 14 6 0 10 -9 10 -21z m154 0
c-3 -5 -10 -7 -15 -3 -5 3 -7 10 -3 15 3 5 10 7 15 3 5 -3 7 -10 3 -15z m789
-6 c6 -32 3 -38 -12 -28 -13 8 -15 55 -2 55 5 0 11 -12 14 -27z m457 -13 c5
-10 9 -29 9 -42 -1 -19 -3 -18 -9 7 -6 23 -8 25 -9 8 -1 -31 -21 -40 -21 -9 0
13 6 27 13 29 9 4 9 8 -3 16 -8 5 -18 7 -22 5 -4 -3 -8 2 -8 11 0 13 4 14 20
5 11 -6 24 -19 30 -30z m-2116 11 c21 -23 14 -56 -14 -71 -20 -11 -39 3 -20
15 5 3 10 17 10 31 0 28 -26 33 -33 7 -3 -11 -5 -7 -6 10 -1 22 3 27 22 27 13
0 32 -9 41 -19z m-134 -23 c0 -19 -2 -20 -10 -8 -13 19 -13 30 0 30 6 0 10
-10 10 -22z m51 -41 c-8 -20 -18 -27 -36 -27 -27 0 -34 15 -10 24 8 3 15 14
15 24 0 27 12 35 27 19 10 -10 11 -20 4 -40z m669 17 c0 -3 -9 -17 -20 -31
-11 -14 -20 -34 -20 -44 0 -14 -7 -19 -25 -19 -67 0 -16 96 53 99 6 1 12 -2
12 -5z m64 0 c14 -5 13 -9 -4 -31 -11 -14 -20 -32 -20 -39 0 -15 -35 -19 -44
-6 -6 10 21 64 37 74 15 9 12 9 31 2z m88 -17 c-12 -13 -22 -31 -22 -40 0 -18
-35 -24 -44 -8 -10 15 44 71 67 71 l20 0 -21 -23z m78 14 c0 -16 -56 -72 -63
-65 -11 11 -9 19 14 48 20 25 49 35 49 17z m-550 -38 c-11 -14 -20 -32 -20
-39 0 -8 -11 -14 -25 -14 -29 0 -30 2 -9 41 14 29 51 52 67 42 4 -2 -2 -16
-13 -30z m220 29 c0 -4 -5 -13 -11 -19 -6 -6 -17 -22 -23 -35 -16 -32 -66 -38
-66 -8 0 29 44 70 75 70 14 0 25 -4 25 -8z m1490 -2 c0 -5 -4 -10 -9 -10 -6 0
-13 5 -16 10 -3 6 1 10 9 10 9 0 16 -4 16 -10z m-1787 -17 c-13 -9 -23 -26
-23 -39 0 -19 -5 -24 -25 -24 -25 0 -34 22 -17 46 11 17 45 33 67 33 19 0 19
-1 -2 -16z m174 -18 c-22 -34 -67 -49 -67 -22 0 27 31 57 60 57 l29 0 -22 -35z
m947 24 c14 -7 27 -18 30 -26 4 -8 3 -13 -1 -11 -49 24 -63 32 -63 40 0 11 4
10 34 -3z m71 5 c14 -6 45 -53 45 -69 0 -3 -11 -5 -25 -5 -17 0 -25 6 -25 17
0 9 -10 27 -22 40 -17 19 -18 23 -6 23 9 0 24 -3 33 -6z m100 -20 c32 -34 32
-54 0 -54 -17 0 -25 6 -25 17 0 9 -10 27 -22 40 l-21 23 22 0 c12 0 33 -12 46
-26z m86 -3 c35 -36 37 -51 5 -51 -17 0 -27 7 -32 23 -3 12 -13 30 -22 40 -28
31 16 21 49 -12z m91 2 c35 -33 36 -53 3 -53 -15 0 -25 6 -25 14 0 7 -7 19
-15 26 -18 15 -20 40 -3 40 7 0 25 -12 40 -27z m-1618 -10 c-9 -39 -13 -43
-35 -43 -25 0 -24 21 1 48 28 30 42 28 34 -5z m1108 12 c122 -16 261 -124 321
-252 27 -58 32 -82 35 -165 4 -79 0 -108 -17 -160 -26 -78 -77 -155 -133 -201
-232 -190 -569 -117 -695 150 -85 178 -39 400 108 526 84 72 221 121 309 111
14 -2 46 -6 72 -9z m617 -11 c24 -30 27 -49 9 -60 -6 -4 -19 3 -30 17 -10 13
-25 31 -33 40 -21 22 -19 29 9 29 15 0 33 -11 45 -26z m75 4 c20 -28 21 -68 2
-68 -13 0 -56 61 -56 81 0 18 39 9 54 -13z m-1870 3 c3 -5 -1 -14 -9 -21 -8
-7 -15 -19 -15 -27 0 -17 -31 -14 -37 4 -5 13 31 53 46 53 6 0 12 -4 15 -9z
m1950 -22 c28 -33 34 -59 13 -59 -15 0 -33 19 -60 63 -17 26 -17 27 2 27 11 0
31 -14 45 -31z m92 -4 c16 -25 13 -55 -6 -55 -6 0 -13 8 -17 18 -3 9 -18 27
-32 39 l-26 22 32 1 c24 0 37 -7 49 -25z m72 -3 c15 -19 16 -52 2 -52 -6 0
-15 11 -20 24 -5 13 -14 27 -19 31 -6 3 -11 10 -11 15 0 13 32 0 48 -18z
m-2208 -17 c0 -25 -14 -34 -24 -16 -8 12 3 41 15 41 5 0 9 -11 9 -25z m2278 3
c14 -14 16 -38 4 -38 -5 0 -14 11 -20 25 -12 26 -4 33 16 13z m63 -9 c8 -16 8
-24 0 -32 -14 -14 -31 6 -31 36 0 23 17 22 31 -4z m-2164 -31 c4 -7 6 -24 4
-38 l-3 -25 21 25 20 25 1 -22 c0 -13 6 -22 13 -20 13 2 14 -17 2 -46 -6 -13
-3 -16 9 -11 19 7 22 -16 4 -34 -6 -6 -8 -15 -4 -19 4 -4 11 -1 16 7 5 8 12
11 16 7 4 -4 2 -13 -4 -19 -17 -17 -15 -28 3 -22 9 4 15 0 15 -9 0 -8 -7 -17
-15 -21 -26 -9 -17 -27 10 -20 30 7 35 -18 8 -36 -16 -10 -15 -11 5 -7 27 6
30 -13 2 -20 -27 -7 -16 -21 18 -23 63 -3 79 -2 113 5 26 5 47 2 81 -14 82
-37 138 5 109 84 -15 43 -14 70 4 85 8 7 15 20 15 29 1 19 83 111 99 111 21 0
11 -29 -20 -53 -27 -21 -28 -25 -15 -36 20 -17 20 -40 1 -47 -10 -4 -13 -13
-10 -25 4 -11 2 -19 -6 -19 -9 0 -8 -4 1 -15 8 -10 9 -19 3 -27 -6 -7 -11 -30
-11 -52 -1 -21 -6 -44 -13 -52 -12 -14 -54 -29 -113 -39 -29 -5 -36 -9 -27
-18 6 -6 11 -25 11 -43 0 -44 59 -119 106 -134 31 -10 35 -16 31 -37 -3 -18 1
-26 18 -33 24 -9 49 -58 43 -87 -2 -11 -14 -19 -31 -21 -26 -3 -28 -2 -17 17
27 51 -94 157 -208 181 -28 7 -71 25 -94 40 l-43 29 -3 -23 c-7 -52 -43 -42
-121 34 l-43 42 7 -30 c9 -42 -41 -100 -96 -108 -49 -8 -57 -19 -51 -72 3 -33
9 -45 27 -52 22 -8 38 -33 28 -43 -10 -10 -64 15 -74 36 -6 11 -13 44 -15 74
l-4 54 45 20 c43 19 57 41 35 54 -18 11 -11 91 10 118 23 30 26 47 6 47 -21 0
-24 19 -10 78 14 62 8 146 -12 163 -11 9 -14 8 -14 -4 0 -9 5 -19 10 -22 6 -3
10 -17 10 -30 0 -13 -4 -27 -10 -30 -5 -3 -10 -17 -10 -31 0 -30 -25 -32 -40
-3 -8 15 -9 29 -1 47 5 15 13 47 17 72 8 54 20 79 48 102 25 20 81 24 93 6z
m529 -3 c4 -8 -1 -27 -10 -41 -13 -19 -22 -23 -38 -18 -16 5 -20 3 -15 -9 4
-10 -4 -22 -19 -32 -16 -10 -23 -22 -20 -31 8 -20 -11 -54 -29 -54 -17 0 -20
-16 -5 -25 6 -4 8 -15 5 -25 -3 -11 0 -20 10 -24 16 -6 21 -51 6 -61 -6 -3
-31 0 -58 6 -26 7 -42 14 -35 17 7 2 9 8 6 13 -4 6 -11 6 -19 -1 -8 -7 -20 -8
-27 -4 -19 12 -57 14 -64 3 -3 -6 -12 -5 -21 3 -9 7 -19 11 -22 8 -3 -3 -10
13 -17 36 -6 22 -21 59 -33 81 -27 54 -39 123 -20 123 8 0 5 5 -6 14 -18 13
-16 15 25 20 25 3 56 7 70 10 14 2 94 4 178 5 128 1 154 -1 158 -14z m1080
-22 c-1 -32 3 -38 27 -47 24 -9 31 -7 43 9 8 11 13 28 10 37 -7 27 13 32 23 6
20 -50 23 -65 27 -121 2 -51 0 -62 -21 -83 -13 -13 -34 -24 -46 -24 -18 0 -19
-3 -9 -15 6 -8 9 -19 5 -25 -3 -5 -1 -10 4 -10 6 0 11 4 11 10 0 5 15 17 32
26 18 9 45 30 60 46 30 32 61 32 86 0 17 -22 16 -26 -14 -61 -20 -24 -23 -34
-15 -49 20 -38 36 -44 72 -27 29 14 40 14 79 3 62 -19 84 -59 75 -143 -4 -36
-12 -63 -21 -68 -8 -4 -14 -14 -14 -21 0 -7 -13 -29 -29 -49 -15 -20 -34 -51
-41 -69 -7 -18 -20 -41 -28 -50 -18 -22 -62 -24 -62 -4 0 20 36 81 77 132 18
23 33 53 33 67 0 14 5 29 10 32 6 3 10 12 10 18 0 7 -8 2 -18 -10 -29 -38
-115 -57 -152 -33 -12 8 -11 15 8 48 23 42 28 87 12 112 -8 12 -10 9 -10 -13
0 -26 -22 -76 -53 -120 -10 -14 -9 -19 1 -26 14 -9 8 -46 -14 -90 -8 -14 -14
-42 -14 -61 0 -66 -9 -80 -47 -80 -33 0 -34 1 -19 21 11 16 12 28 5 47 -5 13
-7 28 -3 31 4 3 9 0 11 -6 8 -24 23 -13 23 16 0 15 -9 40 -21 55 -12 15 -17
31 -13 38 5 9 2 9 -9 -1 -10 -8 -15 -21 -12 -32 3 -9 1 -20 -5 -24 -5 -3 -10
-15 -10 -25 0 -11 -14 -42 -31 -70 -28 -45 -34 -50 -67 -50 l-36 0 25 28 c27
29 59 94 59 117 0 12 -3 12 -18 -2 -10 -10 -16 -25 -14 -34 2 -9 -4 -19 -14
-23 -15 -6 -16 -9 -4 -16 11 -7 8 -11 -13 -21 -15 -7 -27 -20 -27 -29 0 -25
-28 -30 -160 -30 -102 1 -112 2 -91 14 14 8 31 12 38 9 7 -3 13 0 13 7 0 6 32
46 70 88 39 42 73 87 76 99 4 13 14 23 23 23 12 0 13 2 3 8 -14 9 -6 42 10 42
5 0 7 4 4 9 -3 4 0 48 7 97 12 78 15 86 25 67 9 -17 9 -23 -1 -27 -9 -5 -9 -7
1 -12 6 -3 12 -12 12 -20 0 -8 -6 -14 -12 -15 -10 0 -10 -2 0 -6 15 -6 16 -33
0 -33 -7 0 -6 -5 3 -12 9 -7 22 -32 29 -55 7 -23 19 -44 26 -47 8 -3 14 -12
14 -21 0 -51 92 30 110 96 11 41 6 68 -6 33 -21 -60 -45 -105 -59 -110 -37
-15 -29 13 37 124 29 47 13 39 -19 -10 -40 -64 -53 -77 -69 -71 -23 9 -16 27
27 68 22 22 45 49 51 60 6 11 -9 1 -34 -22 -37 -37 -68 -54 -68 -39 0 2 26 30
58 62 56 56 56 56 5 11 -49 -44 -73 -57 -73 -39 0 4 12 15 28 25 l27 17 -27
-6 c-16 -3 -28 -3 -28 0 0 4 12 18 28 32 l27 24 -29 -6 c-45 -11 -28 17 20 31
32 10 36 14 21 20 -11 4 -28 2 -41 -5 -27 -14 -58 -10 -62 8 -1 7 0 8 3 2 6
-14 40 -13 49 2 4 6 -2 19 -14 29 -20 15 -20 18 -4 24 11 5 13 9 5 12 -19 7
-17 82 2 89 17 7 21 44 4 44 -13 0 -4 47 13 67 18 22 25 14 24 -24z m-75 10
c11 -147 6 -188 -21 -203 -17 -9 -21 -5 -31 32 -7 24 -12 51 -11 60 0 9 -6 19
-15 22 -8 4 -13 13 -9 21 3 9 -3 19 -14 25 -11 6 -20 19 -20 30 0 10 -8 21
-17 23 -10 3 17 5 60 6 67 1 77 -1 78 -16z m134 -13 c0 -22 -39 -19 -43 3 -3
15 1 18 20 15 12 -2 23 -10 23 -18z m135 5 c0 -18 20 -20 20 -2 1 7 6 4 15 -7
7 -10 18 -15 24 -12 16 11 80 -25 74 -41 -4 -10 0 -14 13 -12 10 2 29 -2 42
-9 25 -14 31 -45 7 -36 -9 4 -15 0 -15 -10 0 -9 8 -16 18 -16 15 -1 15 -2 -3
-16 -17 -13 -18 -16 -5 -25 11 -8 12 -12 3 -16 -7 -2 -13 -11 -13 -18 0 -7 6
-16 13 -18 9 -4 8 -8 -3 -17 -11 -9 -12 -13 -2 -17 18 -7 14 -33 -5 -33 -47 0
-93 13 -85 24 11 13 9 57 -3 76 -5 9 -4 15 3 18 17 5 15 22 -3 22 -25 0 -85
33 -85 47 0 7 -4 13 -10 13 -5 0 -10 -5 -10 -11 0 -8 -5 -7 -16 2 -9 7 -13 21
-10 33 3 11 1 25 -3 30 -5 6 -11 23 -15 39 -6 25 -4 27 24 27 20 0 30 -5 30
-15z m-2115 -59 c24 -57 35 -159 36 -324 0 -134 -2 -166 -20 -217 -11 -33 -18
-49 -15 -35 4 14 9 107 11 207 5 188 -5 295 -33 348 -8 15 -14 34 -14 41 0 26
21 14 35 -20z m2435 -98 c17 -163 7 -599 -13 -528 -10 38 -29 575 -21 616 10
54 22 23 34 -88z m-2370 54 c6 -29 12 -153 13 -308 2 -229 0 -264 -16 -298
-23 -53 -29 -42 -16 30 13 66 7 585 -7 618 -5 13 -4 17 3 13 6 -4 16 -29 23
-55z m2476 -13 c25 -89 30 -329 9 -445 -10 -58 -20 -91 -25 -83 -12 22 -20
603 -9 592 6 -6 17 -34 25 -64z m-61 18 c9 -62 11 -564 3 -573 -5 -4 -10 -5
-13 -2 -3 2 -8 142 -12 311 -4 221 -3 307 5 307 6 0 14 -19 17 -43z m-2345
-148 l5 35 28 -33 c15 -18 25 -41 23 -50 -3 -9 -8 -29 -12 -46 -4 -16 -12 -36
-17 -43 -9 -11 -12 -11 -18 5 -7 16 -8 16 -8 -3 -1 -12 -9 -32 -19 -44 -19
-23 -19 -22 -25 85 -4 59 -6 145 -6 189 l1 81 21 -105 c18 -87 22 -99 27 -71z
m2495 4 c7 -97 -6 -250 -26 -298 -10 -25 -11 202 -2 339 7 118 18 103 28 -41z
m-2653 -105 c0 -92 -5 -175 -10 -184 -6 -11 -9 55 -9 197 0 146 3 205 9 184 5
-16 10 -105 10 -197z m2698 22 c0 -16 -4 -32 -10 -35 -6 -4 -10 10 -10 35 0
25 4 39 10 35 6 -3 10 -19 10 -35z m-2734 -54 c-10 -40 -26 -31 -26 16 0 39 1
41 16 26 11 -11 14 -25 10 -42z m-49 12 c-3 -8 -6 -5 -6 6 -1 11 2 17 5 13 3
-3 4 -12 1 -19z m943 -27 c0 -5 -6 -12 -12 -14 -10 -4 -9 -8 2 -17 11 -9 12
-13 3 -17 -18 -7 -16 -26 1 -20 9 4 18 -8 26 -36 8 -23 13 -48 11 -54 -1 -7 4
-13 12 -13 7 0 38 -38 69 -85 l55 -85 -43 0 c-47 0 -62 13 -44 35 10 12 10 15
-1 15 -18 0 -69 80 -69 107 0 16 -10 23 -45 32 -34 8 -45 16 -45 30 0 11 -6
22 -12 25 -10 5 -10 7 0 12 18 9 15 21 -8 27 -20 5 -28 45 -13 60 10 11 113 8
113 -2z m-640 -20 c0 -5 -7 -11 -15 -15 -8 -3 -15 -14 -15 -25 0 -23 -39 -36
-47 -15 -9 23 25 64 52 64 14 0 25 -4 25 -9z m-24 -93 c4 -6 3 -13 -3 -15 -37
-13 -47 -33 -54 -108 -5 -49 -14 -84 -23 -94 -14 -14 -15 -12 -6 19 6 19 10
74 10 122 l0 88 34 0 c19 0 38 -5 42 -12z m241 -48 c2 0 2 -4 -1 -9 -7 -10 51
-21 116 -21 57 0 78 -7 78 -27 0 -9 6 -13 13 -10 22 8 94 -29 102 -52 9 -30
-3 -61 -26 -61 -10 0 -19 5 -19 10 0 6 -4 10 -10 10 -5 0 -10 -7 -10 -16 0
-14 -21 -16 -188 -13 -193 4 -228 11 -215 45 3 8 0 14 -6 14 -6 0 -8 7 -4 17
5 13 2 15 -15 11 -19 -5 -22 -2 -22 22 0 23 7 30 43 44 24 9 54 27 67 41 22
23 24 23 58 10 19 -8 36 -15 39 -15z m1843 -15 c-14 -8 -34 -15 -45 -15 -11
-1 -15 -4 -9 -6 15 -6 -20 -103 -44 -124 -10 -8 -21 -23 -25 -33 -4 -10 -11
-16 -16 -12 -6 3 -8 12 -4 20 3 8 0 15 -7 15 -7 0 -10 7 -6 16 4 9 1 23 -5 30
-9 11 -8 14 5 14 17 0 22 26 6 32 -7 2 -7 14 1 35 10 31 13 32 72 36 34 2 71
4 82 5 17 1 16 -1 -5 -13z m-1530 -37 c18 -13 42 -35 53 -50 20 -27 20 -29 4
-63 -11 -23 -24 -35 -37 -35 -24 0 -26 13 -5 30 8 7 15 19 15 27 0 27 -31 74
-63 93 -19 12 -25 20 -16 20 9 0 31 -10 49 -22z m1650 -85 c-12 -34 -24 -49
-39 -51 -25 -4 -28 19 -6 38 18 15 20 41 4 57 -8 8 -7 17 1 34 l13 23 23 -27
c22 -26 22 -26 4 -74z m-395 17 c-4 -12 -9 -19 -12 -17 -3 3 -2 15 2 27 4 12
9 19 12 17 3 -3 2 -15 -2 -27z m335 11 c0 -6 -4 -13 -10 -16 -5 -3 -10 -20
-10 -36 0 -18 -4 -28 -10 -24 -11 7 -13 45 -4 69 7 17 34 22 34 7z m-2119 -95
c-6 -7 -8 -22 -5 -32 6 -16 3 -16 -17 4 -20 19 -22 24 -9 32 24 15 45 13 31
-4z m72 -7 c-6 -6 -9 -18 -6 -25 6 -16 -23 -19 -32 -4 -11 18 3 40 27 40 16 0
19 -3 11 -11z m57 1 c0 -5 -4 -10 -10 -10 -5 0 -7 -7 -4 -15 4 -8 1 -15 -4
-15 -15 0 -25 19 -18 35 6 17 36 21 36 5z m57 -14 c-11 -23 -13 -23 -29 -9
-22 19 -15 33 17 33 21 0 22 -2 12 -24z m85 6 c-18 -14 -20 -20 -10 -30 6 -6
9 -15 5 -19 -10 -10 -57 18 -57 34 0 15 33 31 65 32 19 1 19 0 -3 -17z m75 0
c-11 -12 -13 -22 -6 -35 8 -13 6 -17 -9 -17 -11 0 -26 7 -33 16 -11 14 -10 19
10 35 13 11 30 19 39 19 13 0 13 -2 -1 -18z m73 8 c0 -5 -5 -10 -11 -10 -6 0
-8 -9 -4 -20 10 -31 -4 -44 -26 -24 -19 17 -19 18 3 41 23 24 38 30 38 13z
m58 -10 c-10 -15 -10 -22 0 -32 19 -19 14 -28 -13 -28 -33 0 -49 30 -29 58 8
12 24 22 35 22 17 0 18 -3 7 -20z m276 11 c3 -5 -9 -18 -28 -29 -27 -16 -33
-25 -29 -41 4 -14 1 -21 -9 -21 -22 0 -51 37 -45 55 7 17 -1 19 -22 6 -8 -5
-11 -16 -6 -30 5 -18 2 -21 -19 -21 -28 0 -44 33 -26 54 15 19 59 29 74 17 8
-7 25 -5 51 4 48 17 52 17 59 6z m1434 -3 c14 -14 16 -28 2 -28 -5 0 -14 9
-20 20 -12 22 -1 27 18 8z m-1641 -9 c-13 -8 -17 -18 -13 -35 8 -29 -17 -34
-33 -7 -12 23 13 53 43 53 20 -1 20 -1 3 -11z m313 6 c0 -2 -18 -14 -41 -25
-31 -16 -39 -25 -34 -40 8 -26 -12 -34 -40 -16 -37 24 -31 41 23 64 43 20 92
29 92 17z m1295 -33 c-6 -7 -35 18 -35 31 0 5 9 2 20 -8 11 -10 18 -20 15 -23z
m-1261 19 c3 -5 -1 -11 -9 -15 -8 -3 -15 -16 -15 -30 0 -31 -30 -43 -47 -20
-18 25 -17 30 20 53 36 23 43 25 51 12z m1210 -10 c13 -15 14 -20 4 -23 -7 -3
-18 2 -25 11 -26 33 -7 44 21 12z m-1157 -26 c-1 -19 -7 -37 -15 -40 -33 -12
-43 26 -15 57 24 26 31 22 30 -17z m428 11 c15 -15 22 -31 19 -40 -8 -22 -43
-20 -50 2 -3 9 -10 25 -15 34 -12 24 -11 28 6 28 9 0 27 -11 40 -24z m58 7
c25 -29 25 -58 0 -61 -17 -3 -21 1 -17 12 3 8 -2 26 -11 40 -15 22 -15 26 -3
26 8 0 22 -8 31 -17z m177 -38 c0 -20 -5 -25 -26 -25 -20 0 -24 4 -19 19 3 10
-1 24 -10 31 -24 20 -6 31 26 15 20 -11 29 -23 29 -40z m143 25 c17 -16 17
-18 2 -34 -22 -22 -45 -20 -45 3 0 10 -7 24 -15 31 -8 7 -12 16 -9 22 8 12 44
0 67 -22z m49 13 c19 -17 25 -63 8 -63 -5 0 -10 8 -10 17 0 9 -10 27 -22 40
-25 27 -5 33 24 6z m196 -16 c2 -15 -1 -27 -7 -27 -6 0 -11 3 -11 8 0 4 -3 18
-7 31 -4 18 -2 23 8 19 8 -2 15 -17 17 -31z m50 21 c17 -17 15 -38 -3 -38 -8
0 -15 4 -15 9 0 5 -3 16 -6 25 -7 19 7 21 24 4z m-739 -22 c16 -28 8 -46 -20
-46 -12 0 -19 7 -19 19 0 11 -4 23 -10 26 -18 11 -11 25 13 25 15 0 29 -9 36
-24z m221 9 c19 -23 8 -50 -24 -53 -23 -3 -28 0 -22 13 3 9 1 25 -4 36 -9 16
-7 19 13 19 14 0 30 -7 37 -15z m134 -14 c9 -16 12 -31 9 -35 -15 -14 -29 -4
-39 29 -14 45 8 49 30 6z m224 0 c6 -40 -13 -44 -31 -5 -17 35 -17 35 5 32 15
-2 24 -11 26 -27z m67 9 c6 -20 0 -40 -14 -40 -7 0 -31 43 -31 55 0 15 40 2
45 -15z m-939 -21 c1 -27 -2 -30 -25 -27 -20 2 -27 9 -29 31 -3 24 0 27 25 27
24 0 28 -4 29 -31z m234 11 c13 -25 5 -40 -21 -40 -14 0 -19 7 -19 30 0 35 23
41 40 10z m-156 4 c9 -3 16 -15 16 -25 0 -27 -55 -26 -70 0 -5 11 -10 22 -10
25 0 8 44 8 64 0z m96 -20 c0 -22 -4 -25 -27 -22 -20 2 -29 9 -31 26 -3 19 1
22 27 22 27 0 31 -4 31 -26z m-880 -54 c0 -5 -7 -10 -16 -10 -8 0 -12 5 -9 10
3 6 10 10 16 10 5 0 9 -4 9 -10z m50 0 c0 -5 -7 -10 -16 -10 -8 0 -12 5 -9 10
3 6 10 10 16 10 5 0 9 -4 9 -10z m60 0 c0 -5 -9 -10 -21 -10 -11 0 -17 5 -14
10 3 6 13 10 21 10 8 0 14 -4 14 -10z m60 0 c0 -12 -28 -25 -36 -17 -9 9 6 27
22 27 8 0 14 -5 14 -10z m60 0 c0 -12 -28 -25 -36 -17 -9 9 6 27 22 27 8 0 14
-5 14 -10z m58 -2 c-7 -19 -38 -22 -38 -4 0 10 9 16 21 16 12 0 19 -5 17 -12z
m60 0 c-5 -15 -48 -24 -48 -10 0 14 12 22 33 22 10 0 17 -5 15 -12z m60 0 c-5
-15 -48 -24 -48 -10 0 14 12 22 33 22 10 0 17 -5 15 -12z m52 -3 c-13 -16 -40
-20 -40 -7 0 14 12 22 33 22 16 0 17 -3 7 -15z m78 3 c-3 -7 -19 -14 -36 -16
-25 -3 -31 0 -26 12 7 19 68 23 62 4z m76 -3 c-6 -16 -64 -22 -64 -7 0 15 13
22 41 22 21 0 27 -4 23 -15z m74 3 c-7 -20 -58 -23 -58 -4 0 11 10 16 31 16
20 0 29 -4 27 -12z m172 3 c0 -5 -7 -14 -14 -21 -20 -16 -62 -9 -58 10 3 11
-1 11 -16 -3 -30 -27 -77 -21 -65 9 4 10 25 14 79 14 41 0 74 -4 74 -9z m58
-8 c-2 -11 -14 -19 -31 -21 -29 -4 -30 -2 -21 22 9 23 56 21 52 -1z m70 0 c2
-9 -7 -13 -27 -13 -30 0 -39 9 -24 24 11 10 46 3 51 -11z m56 11 c24 -9 19
-24 -8 -24 -26 0 -40 12 -29 24 8 8 17 8 37 0z m191 -4 c3 -6 -1 -13 -10 -16
-19 -8 -30 0 -20 15 8 14 22 14 30 1z m-1328 -6 c-3 -3 -12 -4 -19 -1 -8 3 -5
6 6 6 11 1 17 -2 13 -5z m50 0 c-3 -3 -12 -4 -19 -1 -8 3 -5 6 6 6 11 1 17 -2
13 -5z m1173 -4 c0 -5 -11 -10 -24 -10 -14 0 -28 5 -31 10 -4 6 7 10 24 10 17
0 31 -4 31 -10z m50 0 c0 -5 -9 -10 -20 -10 -11 0 -20 5 -20 10 0 6 9 10 20
10 11 0 20 -4 20 -10z m110 0 c0 -5 -9 -10 -20 -10 -11 0 -20 5 -20 10 0 6 9
10 20 10 11 0 20 -4 20 -10z m50 0 c0 -5 -9 -10 -20 -10 -11 0 -20 5 -20 10 0
6 9 10 20 10 11 0 20 -4 20 -10z m60 0 c0 -5 -9 -10 -20 -10 -11 0 -20 5 -20
10 0 6 9 10 20 10 11 0 20 -4 20 -10z m50 0 c0 -5 -7 -10 -15 -10 -8 0 -15 5
-15 10 0 6 7 10 15 10 8 0 15 -4 15 -10z m50 0 c0 -5 -4 -10 -9 -10 -6 0 -13
5 -16 10 -3 6 1 10 9 10 9 0 16 -4 16 -10z m50 0 c0 -5 -4 -10 -10 -10 -5 0
-10 5 -10 10 0 6 5 10 10 10 6 0 10 -4 10 -10z m50 6 c0 -11 -19 -15 -25 -6
-3 5 1 10 9 10 9 0 16 -2 16 -4z m40 -6 c0 -5 -4 -10 -9 -10 -6 0 -13 5 -16
10 -3 6 1 10 9 10 9 0 16 -4 16 -10z m40 0 c0 -5 -2 -10 -4 -10 -3 0 -8 5 -11
10 -3 6 -1 10 4 10 6 0 11 -4 11 -10z m-1633 -46 c3 -8 1 -25 -4 -37 l-10 -22
-12 23 c-13 25 -9 52 9 52 6 0 13 -7 17 -16z m89 -9 c13 -20 14 -28 4 -40 -18
-21 -40 -1 -40 36 0 36 14 37 36 4z m98 9 c13 -35 7 -56 -16 -52 -18 2 -24 11
-26 36 -3 26 0 32 16 32 11 0 23 -7 26 -16z m91 -14 c20 -39 19 -42 -12 -38
-23 2 -29 8 -31 36 -4 42 21 44 43 2z m93 5 c18 -38 15 -45 -17 -45 -23 0 -30
6 -35 25 -4 14 -4 30 -1 35 12 19 42 10 53 -15z m76 15 c20 -7 26 -16 26 -40
0 -25 -4 -30 -25 -30 -18 0 -28 7 -35 26 -20 52 -13 62 34 44z m662 2 c6 -4
15 -21 18 -38 5 -24 3 -33 -10 -38 -23 -9 -44 11 -44 44 0 37 12 48 36 32z
m497 -7 c7 -17 -28 -63 -39 -52 -4 4 -2 13 4 19 7 7 12 20 12 30 0 22 16 24
23 3z m-1705 -20 c-2 -14 -7 -26 -13 -26 -5 0 -11 12 -13 26 -2 18 1 25 13 25
12 0 15 -7 13 -25z m680 10 c1 -1 -2 -14 -8 -29 -8 -22 -15 -27 -38 -24 -21 2
-26 8 -24 23 6 41 11 46 39 39 16 -4 29 -8 31 -9z m150 -14 c4 -23 -11 -41
-35 -41 -14 0 -18 52 -6 64 14 14 38 0 41 -23z m70 -9 c3 -27 0 -32 -18 -32
-27 0 -51 47 -29 61 25 16 44 5 47 -29z m70 32 c18 -5 22 -13 20 -33 -2 -22
-8 -26 -33 -26 -31 0 -43 20 -31 51 6 16 11 16 44 8z m90 -6 c7 -7 12 -22 12
-35 0 -19 -5 -23 -29 -23 -23 0 -30 5 -35 27 -10 37 25 58 52 31z m92 -23 c0
-30 -3 -35 -24 -35 -24 0 -36 16 -36 51 0 14 7 19 30 19 28 0 30 -3 30 -35z
m155 0 c0 -25 -4 -31 -26 -33 -20 -2 -28 2 -33 20 -11 43 -8 49 27 46 28 -3
32 -6 32 -33z m91 21 c8 -21 -14 -56 -35 -56 -18 0 -35 45 -24 62 8 14 53 9
59 -6z m78 -2 c13 -35 7 -54 -19 -54 -22 0 -25 4 -25 35 0 28 4 35 19 35 10 0
22 -7 25 -16z m121 2 c16 -12 17 -16 6 -30 -18 -21 -55 -22 -47 0 3 9 6 22 6
30 0 18 11 18 35 0z m-847 -23 c-2 -22 -8 -28 -28 -28 -20 0 -26 6 -28 28 -3
24 0 27 28 27 28 0 31 -3 28 -27z"/>
<path d="M2003 5301 c-22 -16 -44 -34 -48 -40 -13 -21 34 -11 63 14 38 32 59
32 94 -2 35 -34 46 -24 21 19 -27 47 -74 50 -130 9z"/>
<path d="M2429 5291 c-16 -16 -29 -34 -29 -40 0 -19 29 -12 40 9 17 31 54 35
89 9 43 -32 53 -13 11 22 -43 37 -74 37 -111 0z"/>
<path d="M2210 4800 c0 -19 19 -40 37 -40 7 0 13 11 13 27 0 25 -1 26 -14 8
-13 -18 -13 -18 -24 1 -9 15 -11 15 -12 4z"/>
<path d="M2442 4742 c-1 -13 -11 -37 -23 -53 -16 -22 -17 -29 -6 -29 25 0 38
27 34 67 -2 21 -4 27 -5 15z"/>
<path d="M2110 4709 c0 -17 26 -57 33 -49 2 3 -4 19 -14 35 -11 17 -19 23 -19
14z"/>
<path d="M2150 2042 c-206 -69 -329 -286 -276 -489 22 -89 50 -138 112 -200
203 -204 543 -140 666 124 97 207 2 454 -212 551 -75 34 -211 40 -290 14z
m100 -24 c16 -10 24 -10 40 0 26 16 38 15 57 -4 10 -9 26 -14 40 -11 15 3 22
0 20 -7 -43 -103 -97 -248 -97 -258 0 -18 40 69 80 175 l33 88 20 -22 c10 -11
27 -19 36 -16 18 4 33 -8 44 -36 4 -11 16 -21 27 -24 29 -8 25 -17 -20 -47
-22 -15 -68 -50 -103 -79 -81 -69 -81 -69 -111 -55 -22 9 -25 16 -21 42 15 85
24 176 24 216 -1 38 -3 32 -14 -35 -7 -44 -16 -111 -20 -149 -5 -46 -10 -64
-16 -55 -5 8 -9 27 -9 42 0 47 -34 243 -38 223 -4 -19 25 -236 35 -262 3 -8 1
-14 -5 -14 -6 0 -16 17 -23 38 -6 20 -31 81 -55 135 -24 53 -44 99 -44 100 0
2 13 2 30 -1 21 -3 32 0 36 12 7 19 27 21 54 4z m-105 -83 c10 -27 35 -87 56
-133 21 -46 34 -82 30 -80 -5 2 -40 44 -79 93 -79 103 -137 161 -81 81 19 -27
60 -80 92 -118 32 -38 56 -72 54 -75 -3 -2 -30 15 -59 39 -30 25 -85 67 -124
94 -59 42 -65 49 -46 52 16 2 28 15 38 37 10 25 20 33 35 32 12 -1 29 8 38 20
19 25 22 22 46 -42z m441 -71 c-3 -9 4 -25 19 -40 13 -13 20 -24 14 -24 -5 0
-66 -25 -136 -55 -70 -30 -128 -53 -131 -51 -2 2 32 31 75 64 43 33 94 74 113
91 39 33 55 39 46 15z m-600 -5 c3 -6 52 -45 108 -86 55 -41 102 -78 103 -82
2 -3 -1 -11 -5 -18 -6 -9 -30 -8 -102 3 -90 13 -188 19 -179 10 2 -2 51 -9
109 -16 139 -15 173 -20 167 -26 -3 -3 -51 -11 -108 -19 -57 -7 -124 -17 -147
-21 -42 -7 -43 -6 -31 13 7 13 9 27 4 39 -14 31 -13 53 3 59 10 4 13 15 9 39
-6 36 0 49 26 59 10 4 17 17 17 32 0 26 14 33 26 14z m646 -96 c-3 -18 1 -30
13 -39 15 -11 14 -13 -16 -18 -195 -29 -259 -41 -234 -44 17 -1 82 6 145 17
63 11 116 18 118 16 2 -2 -3 -12 -10 -24 -11 -17 -10 -25 1 -42 13 -21 12 -22
-25 -16 -22 4 -90 12 -151 19 -154 16 -152 27 15 100 70 31 132 56 138 57 7 1
9 -9 6 -26z m-312 -73 c11 -11 20 -29 20 -39 0 -31 -33 -63 -65 -63 -29 0 -65
31 -65 57 0 7 9 24 21 39 25 31 61 34 89 6z m-130 -64 c0 -2 2 -11 5 -18 4 -9
-25 -37 -82 -80 -48 -36 -99 -78 -113 -94 -23 -26 -22 -25 24 7 27 19 80 60
118 92 38 32 72 56 75 53 3 -3 -12 -27 -34 -53 -45 -55 -116 -151 -127 -173
-15 -30 67 67 117 138 28 39 54 72 58 72 3 0 -19 -63 -49 -139 -51 -126 -58
-137 -70 -120 -7 10 -22 19 -32 19 -32 0 -50 11 -50 31 0 12 -13 26 -35 36
-22 11 -34 22 -30 31 7 19 -12 52 -31 52 -23 0 -8 17 21 24 44 11 239 100 228
103 -6 2 -64 -19 -129 -47 -66 -29 -125 -54 -133 -57 -11 -5 -11 -2 -2 14 8
17 7 26 -9 46 l-20 25 73 7 c39 3 101 12 137 20 76 15 90 17 90 11z m358 -17
c107 -11 131 -20 96 -33 -12 -5 -15 -14 -10 -36 4 -24 1 -35 -19 -52 -14 -12
-25 -31 -25 -42 0 -28 -11 -43 -35 -47 -12 -3 -21 -14 -23 -27 -2 -12 -7 -22
-11 -22 -4 0 -38 39 -74 88 -86 113 -117 149 -117 138 0 -12 131 -185 159
-210 21 -19 29 -42 11 -31 -16 10 -48 -4 -55 -25 -4 -14 -13 -17 -35 -15 -18
3 -38 -4 -55 -17 -23 -18 -30 -19 -51 -8 -20 11 -28 11 -49 0 -22 -12 -27 -11
-45 5 -12 11 -29 16 -45 12 -32 -6 -33 -11 28 136 25 59 47 117 51 129 3 12 8
19 11 16 3 -3 -1 -55 -10 -116 -9 -61 -15 -126 -13 -144 3 -34 20 59 33 190 6
48 11 62 24 62 9 0 28 11 42 24 l26 24 109 -43 c60 -24 120 -46 134 -49 48
-13 -29 25 -132 64 -110 41 -133 56 -73 46 22 -3 91 -11 153 -17z"/>
<path d="M2423 1858 c-75 -100 -117 -169 -68 -113 46 53 147 196 142 201 -2 2
-36 -37 -74 -88z"/>
<path d="M1941 1776 c35 -20 227 -96 242 -96 6 0 4 5 -5 11 -23 13 -207 86
-238 93 l-25 7 26 -15z"/>
<path d="M2250 1676 c-20 -25 -8 -61 22 -64 37 -4 57 31 32 59 -20 23 -37 24
-54 5z"/>
<path d="M2350 1586 c0 -8 214 -166 223 -166 11 0 -48 50 -140 118 -66 49 -83
58 -83 48z"/>
<path d="M2316 1540 c10 -39 96 -231 101 -227 6 6 -53 153 -83 207 -13 25 -22
34 -18 20z"/>
<path d="M2296 1475 c3 -44 11 -109 19 -145 l14 -65 -5 75 c-3 41 -12 107 -20
145 l-13 70 5 -80z"/>
<path d="M1165 1949 c-4 -6 -5 -12 -2 -15 2 -3 7 2 10 11 7 17 1 20 -8 4z"/>
<path d="M1181 1924 c0 -11 3 -14 6 -6 3 7 2 16 -1 19 -3 4 -6 -2 -5 -13z"/>
<path d="M1205 1911 c-3 -5 -1 -12 5 -16 5 -3 10 1 10 9 0 18 -6 21 -15 7z"/>
<path d="M1237 1877 c-4 -10 -7 -26 -7 -35 1 -15 2 -15 11 1 6 10 9 25 7 35
-3 16 -4 15 -11 -1z"/>
<path d="M1257 1833 c-4 -3 -7 -13 -7 -21 0 -12 3 -12 15 -2 8 7 15 16 15 21
0 11 -14 12 -23 2z"/>
<path d="M1280 1785 c-7 -9 -11 -18 -8 -20 3 -3 11 1 18 10 7 9 11 18 8 20 -3
3 -11 -1 -18 -10z"/>
<path d="M1296 1752 c-10 -12 -16 -28 -14 -38 2 -15 6 -13 21 10 23 34 18 55
-7 28z"/>
<path d="M1305 1699 c-4 -12 -2 -26 4 -32 8 -8 11 -7 11 5 0 9 3 23 6 32 3 9
1 16 -4 16 -6 0 -14 -9 -17 -21z"/>
<path d="M1337 1683 c-11 -10 -8 -53 3 -53 6 0 10 14 10 30 0 31 -2 35 -13 23z"/>
<path d="M1385 1640 c3 -5 8 -10 11 -10 2 0 4 5 4 10 0 6 -5 10 -11 10 -5 0
-7 -4 -4 -10z"/>
<path d="M1610 1980 c0 -5 5 -10 10 -10 6 0 10 5 10 10 0 6 -4 10 -10 10 -5 0
-10 -4 -10 -10z"/>
<path d="M1645 1980 c-3 -5 1 -10 9 -10 9 0 16 5 16 10 0 6 -4 10 -9 10 -6 0
-13 -4 -16 -10z"/>
<path d="M1680 1980 c0 -5 5 -10 10 -10 6 0 10 5 10 10 0 6 -4 10 -10 10 -5 0
-10 -4 -10 -10z"/>
<path d="M1720 1980 c0 -5 5 -10 10 -10 6 0 10 5 10 10 0 6 -4 10 -10 10 -5 0
-10 -4 -10 -10z"/>
<path d="M1770 1980 c0 -5 5 -10 10 -10 6 0 10 5 10 10 0 6 -4 10 -10 10 -5 0
-10 -4 -10 -10z"/>
<path d="M1398 1963 c7 -3 16 -2 19 1 4 3 -2 6 -13 5 -11 0 -14 -3 -6 -6z"/>
<path d="M1610 1930 c0 -5 5 -10 10 -10 6 0 10 5 10 10 0 6 -4 10 -10 10 -5 0
-10 -4 -10 -10z"/>
<path d="M1650 1930 c0 -5 5 -10 10 -10 6 0 10 5 10 10 0 6 -4 10 -10 10 -5 0
-10 -4 -10 -10z"/>
<path d="M1680 1930 c0 -5 5 -10 10 -10 6 0 10 5 10 10 0 6 -4 10 -10 10 -5 0
-10 -4 -10 -10z"/>
<path d="M1398 1923 c7 -3 16 -2 19 1 4 3 -2 6 -13 5 -11 0 -14 -3 -6 -6z"/>
<path d="M1520 1870 c0 -5 5 -10 10 -10 6 0 10 5 10 10 0 6 -4 10 -10 10 -5 0
-10 -4 -10 -10z"/>
<path d="M1570 1870 c0 -5 5 -10 10 -10 6 0 10 5 10 10 0 6 -4 10 -10 10 -5 0
-10 -4 -10 -10z"/>
<path d="M1610 1870 c0 -5 5 -10 10 -10 6 0 10 5 10 10 0 6 -4 10 -10 10 -5 0
-10 -4 -10 -10z"/>
<path d="M1650 1870 c0 -5 5 -10 10 -10 6 0 10 5 10 10 0 6 -4 10 -10 10 -5 0
-10 -4 -10 -10z"/>
<path d="M1398 1863 c7 -3 16 -2 19 1 4 3 -2 6 -13 5 -11 0 -14 -3 -6 -6z"/>
<path d="M1440 1800 c0 -5 5 -10 10 -10 6 0 10 5 10 10 0 6 -4 10 -10 10 -5 0
-10 -4 -10 -10z"/>
<path d="M1480 1800 c0 -5 5 -10 10 -10 6 0 10 5 10 10 0 6 -4 10 -10 10 -5 0
-10 -4 -10 -10z"/>
<path d="M1520 1800 c0 -5 5 -10 10 -10 6 0 10 5 10 10 0 6 -4 10 -10 10 -5 0
-10 -4 -10 -10z"/>
<path d="M1570 1800 c0 -5 5 -10 10 -10 6 0 10 5 10 10 0 6 -4 10 -10 10 -5 0
-10 -4 -10 -10z"/>
<path d="M1610 1800 c0 -5 5 -10 10 -10 6 0 10 5 10 10 0 6 -4 10 -10 10 -5 0
-10 -4 -10 -10z"/>
<path d="M1570 1750 c0 -5 5 -10 10 -10 6 0 10 5 10 10 0 6 -4 10 -10 10 -5 0
-10 -4 -10 -10z"/>
<path d="M1610 1710 c0 -5 5 -10 10 -10 6 0 10 5 10 10 0 6 -4 10 -10 10 -5 0
-10 -4 -10 -10z"/>
<path d="M1655 1710 c-3 -5 1 -10 10 -10 9 0 13 5 10 10 -3 6 -8 10 -10 10 -2
0 -7 -4 -10 -10z"/>
<path d="M2900 1877 c-14 -7 -26 -21 -28 -31 -3 -11 0 -16 7 -12 6 4 11 0 11
-10 0 -14 2 -15 17 -3 15 12 16 12 10 -3 -9 -25 19 -24 32 1 8 15 7 20 -6 25
-12 5 -14 9 -5 18 28 28 5 37 -38 15z"/>
<path d="M3060 1719 c0 -5 5 -7 10 -4 6 3 10 8 10 11 0 2 -4 4 -10 4 -5 0 -10
-5 -10 -11z"/>
<path d="M2788 1453 c7 -3 16 -2 19 1 4 3 -2 6 -13 5 -11 0 -14 -3 -6 -6z"/>
<path d="M2788 1403 c7 -3 16 -2 19 1 4 3 -2 6 -13 5 -11 0 -14 -3 -6 -6z"/>
<path d="M2698 1353 c7 -3 16 -2 19 1 4 3 -2 6 -13 5 -11 0 -14 -3 -6 -6z"/>
<path d="M2645 1290 c-3 -5 1 -10 9 -10 9 0 16 5 16 10 0 6 -4 10 -9 10 -6 0
-13 -4 -16 -10z"/>
<path d="M2690 1290 c0 -5 5 -10 10 -10 6 0 10 5 10 10 0 6 -4 10 -10 10 -5 0
-10 -4 -10 -10z"/>
<path d="M2600 1240 c0 -5 5 -10 10 -10 6 0 10 5 10 10 0 6 -4 10 -10 10 -5 0
-10 -4 -10 -10z"/>
<path d="M2650 1240 c0 -5 5 -10 10 -10 6 0 10 5 10 10 0 6 -4 10 -10 10 -5 0
-10 -4 -10 -10z"/>
<path d="M2690 1240 c0 -5 5 -10 10 -10 6 0 10 5 10 10 0 6 -4 10 -10 10 -5 0
-10 -4 -10 -10z"/>
<path d="M2740 1240 c0 -5 5 -10 10 -10 6 0 10 5 10 10 0 6 -4 10 -10 10 -5 0
-10 -4 -10 -10z"/>
<path d="M2710 1975 c0 -8 5 -15 10 -15 6 0 10 7 10 15 0 8 -4 15 -10 15 -5 0
-10 -7 -10 -15z"/>
<path d="M2750 1975 c0 -8 5 -15 10 -15 6 0 10 7 10 15 0 8 -4 15 -10 15 -5 0
-10 -7 -10 -15z"/>
<path d="M2750 1925 c0 -8 5 -15 10 -15 6 0 10 7 10 15 0 8 -4 15 -10 15 -5 0
-10 -7 -10 -15z"/>
<path d="M2750 1880 c0 -5 7 -10 15 -10 8 0 15 5 15 10 0 6 -7 10 -15 10 -8 0
-15 -4 -15 -10z"/>
<path d="M2760 1820 c0 -5 5 -10 10 -10 6 0 10 5 10 10 0 6 -4 10 -10 10 -5 0
-10 -4 -10 -10z"/>
<path d="M3030 1960 c0 -5 4 -10 9 -10 6 0 13 5 16 10 3 6 -1 10 -9 10 -9 0
-16 -4 -16 -10z"/>
<path d="M3070 1910 c0 -5 5 -10 10 -10 6 0 10 5 10 10 0 6 -4 10 -10 10 -5 0
-10 -4 -10 -10z"/>
<path d="M3100 1910 c0 -5 4 -10 9 -10 6 0 13 5 16 10 3 6 -1 10 -9 10 -9 0
-16 -4 -16 -10z"/>
<path d="M3150 1910 c0 -5 5 -10 10 -10 6 0 10 5 10 10 0 6 -4 10 -10 10 -5 0
-10 -4 -10 -10z"/>
<path d="M3110 1860 c0 -5 5 -10 10 -10 6 0 10 5 10 10 0 6 -4 10 -10 10 -5 0
-10 -4 -10 -10z"/>
<path d="M3150 1850 c0 -5 5 -10 10 -10 6 0 10 5 10 10 0 6 -4 10 -10 10 -5 0
-10 -4 -10 -10z"/>
<path d="M3200 1850 c0 -5 7 -10 15 -10 8 0 15 5 15 10 0 6 -7 10 -15 10 -8 0
-15 -4 -15 -10z"/>
<path d="M3210 1800 c0 -5 5 -10 10 -10 6 0 10 5 10 10 0 6 -4 10 -10 10 -5 0
-10 -4 -10 -10z"/>
<path d="M3210 1755 c0 -8 5 -15 10 -15 6 0 10 7 10 15 0 8 -4 15 -10 15 -5 0
-10 -7 -10 -15z"/>
<path d="M3210 1710 c0 -5 5 -10 10 -10 6 0 10 5 10 10 0 6 -4 10 -10 10 -5 0
-10 -4 -10 -10z"/>
<path d="M1680 1560 c0 -5 5 -10 10 -10 6 0 10 5 10 10 0 6 -4 10 -10 10 -5 0
-10 -4 -10 -10z"/>
<path d="M1725 1560 c3 -5 10 -10 16 -10 5 0 9 5 9 10 0 6 -7 10 -16 10 -8 0
-12 -4 -9 -10z"/>
<path d="M1725 1520 c4 -6 11 -8 16 -5 14 9 11 15 -7 15 -8 0 -12 -5 -9 -10z"/>
<path d="M1780 1470 c0 -5 5 -10 10 -10 6 0 10 5 10 10 0 6 -4 10 -10 10 -5 0
-10 -4 -10 -10z"/>
<path d="M1730 1460 c0 -5 4 -10 9 -10 6 0 13 5 16 10 3 6 -1 10 -9 10 -9 0
-16 -4 -16 -10z"/>
<path d="M1830 1360 c0 -5 5 -10 10 -10 6 0 10 5 10 10 0 6 -4 10 -10 10 -5 0
-10 -4 -10 -10z"/>
<path d="M1190 1360 c0 -5 4 -10 9 -10 6 0 13 5 16 10 3 6 -1 10 -9 10 -9 0
-16 -4 -16 -10z"/>
<path d="M1240 1360 c0 -5 5 -10 10 -10 6 0 10 5 10 10 0 6 -4 10 -10 10 -5 0
-10 -4 -10 -10z"/>
<path d="M1280 1360 c0 -5 5 -10 10 -10 6 0 10 5 10 10 0 6 -4 10 -10 10 -5 0
-10 -4 -10 -10z"/>
<path d="M1320 1360 c0 -5 7 -10 15 -10 8 0 15 5 15 10 0 6 -7 10 -15 10 -8 0
-15 -4 -15 -10z"/>
<path d="M1360 1360 c0 -5 5 -10 10 -10 6 0 10 5 10 10 0 6 -4 10 -10 10 -5 0
-10 -4 -10 -10z"/>
<path d="M1405 1360 c-3 -5 1 -10 10 -10 9 0 13 5 10 10 -3 6 -8 10 -10 10 -2
0 -7 -4 -10 -10z"/>
<path d="M1440 1350 c0 -5 5 -10 10 -10 6 0 10 5 10 10 0 6 -4 10 -10 10 -5 0
-10 -4 -10 -10z"/>
<path d="M1480 1350 c0 -5 5 -10 10 -10 6 0 10 5 10 10 0 6 -4 10 -10 10 -5 0
-10 -4 -10 -10z"/>
<path d="M1520 1350 c0 -5 5 -10 10 -10 6 0 10 5 10 10 0 6 -4 10 -10 10 -5 0
-10 -4 -10 -10z"/>
<path d="M1240 1310 c0 -5 5 -10 10 -10 6 0 10 5 10 10 0 6 -4 10 -10 10 -5 0
-10 -4 -10 -10z"/>
<path d="M1280 1310 c0 -5 7 -10 16 -10 8 0 12 5 9 10 -3 6 -10 10 -16 10 -5
0 -9 -4 -9 -10z"/>
<path d="M1320 1300 c0 -5 5 -10 10 -10 6 0 10 5 10 10 0 6 -4 10 -10 10 -5 0
-10 -4 -10 -10z"/>
<path d="M1360 1300 c0 -5 5 -10 10 -10 6 0 10 5 10 10 0 6 -4 10 -10 10 -5 0
-10 -4 -10 -10z"/>
<path d="M1400 1300 c0 -5 7 -10 15 -10 8 0 15 5 15 10 0 6 -7 10 -15 10 -8 0
-15 -4 -15 -10z"/>
<path d="M1440 1300 c0 -5 5 -10 10 -10 6 0 10 5 10 10 0 6 -4 10 -10 10 -5 0
-10 -4 -10 -10z"/>
<path d="M1480 1300 c0 -5 7 -10 15 -10 8 0 15 5 15 10 0 6 -7 10 -15 10 -8 0
-15 -4 -15 -10z"/>
<path d="M1520 1300 c0 -5 5 -10 10 -10 6 0 10 5 10 10 0 6 -4 10 -10 10 -5 0
-10 -4 -10 -10z"/>
<path d="M1560 1300 c0 -5 7 -10 16 -10 8 0 12 5 9 10 -3 6 -10 10 -16 10 -5
0 -9 -4 -9 -10z"/>
<path d="M1610 1300 c0 -5 5 -10 10 -10 6 0 10 5 10 10 0 6 -4 10 -10 10 -5 0
-10 -4 -10 -10z"/>
<path d="M1240 1260 c0 -5 5 -10 10 -10 6 0 10 5 10 10 0 6 -4 10 -10 10 -5 0
-10 -4 -10 -10z"/>
<path d="M1290 1250 c0 -5 5 -10 10 -10 6 0 10 5 10 10 0 6 -4 10 -10 10 -5 0
-10 -4 -10 -10z"/>
<path d="M1325 1250 c3 -5 10 -10 16 -10 5 0 9 5 9 10 0 6 -7 10 -16 10 -8 0
-12 -4 -9 -10z"/>
<path d="M1365 1250 c3 -5 10 -10 16 -10 5 0 9 5 9 10 0 6 -7 10 -16 10 -8 0
-12 -4 -9 -10z"/>
<path d="M1400 1250 c0 -5 7 -10 15 -10 8 0 15 5 15 10 0 6 -7 10 -15 10 -8 0
-15 -4 -15 -10z"/>
<path d="M1440 1250 c0 -5 5 -10 10 -10 6 0 10 5 10 10 0 6 -4 10 -10 10 -5 0
-10 -4 -10 -10z"/>
<path d="M1480 1250 c0 -5 7 -10 15 -10 8 0 15 5 15 10 0 6 -7 10 -15 10 -8 0
-15 -4 -15 -10z"/>
<path d="M1520 1250 c0 -5 5 -10 10 -10 6 0 10 5 10 10 0 6 -4 10 -10 10 -5 0
-10 -4 -10 -10z"/>
<path d="M1560 1250 c0 -5 7 -10 15 -10 8 0 15 5 15 10 0 6 -7 10 -15 10 -8 0
-15 -4 -15 -10z"/>
<path d="M3100 1380 c0 -5 7 -10 15 -10 8 0 15 5 15 10 0 6 -7 10 -15 10 -8 0
-15 -4 -15 -10z"/>
<path d="M3090 1330 c0 -5 5 -10 10 -10 6 0 10 5 10 10 0 6 -4 10 -10 10 -5 0
-10 -4 -10 -10z"/>
<path d="M3090 1280 c0 -5 5 -10 10 -10 6 0 10 5 10 10 0 6 -4 10 -10 10 -5 0
-10 -4 -10 -10z"/>
<path d="M1850 752 c0 -20 48 -52 77 -52 24 0 39 -9 67 -42 20 -23 38 -39 41
-36 11 11 -78 110 -111 124 -37 16 -74 18 -74 6z"/>
<path d="M3220 755 c0 -3 7 -17 16 -30 13 -19 25 -25 54 -25 33 0 43 -6 71
-41 18 -23 35 -37 37 -31 5 17 -68 100 -104 117 -31 15 -74 20 -74 10z"/>
<path d="M1000 590 c0 -17 7 -20 45 -20 l45 0 0 -37 c0 -52 -12 -68 -37 -54
-47 25 -45 -42 3 -106 51 -67 96 -113 111 -113 22 0 15 17 -19 46 -58 48 -62
59 -38 100 21 34 23 34 46 19 13 -8 41 -15 64 -15 l40 0 0 -49 c0 -39 6 -56
25 -78 l24 -28 1 158 0 158 148 -3 c145 -3 147 -3 150 -26 6 -43 -13 -52 -108
-52 -106 0 -140 -18 -140 -77 0 -54 94 -172 118 -148 4 3 -13 24 -36 45 -77
71 -48 140 60 140 38 0 46 -4 66 -36 24 -37 83 -69 111 -61 9 3 24 8 34 12 14
6 17 2 17 -27 0 -24 8 -42 25 -58 l25 -23 0 157 0 157 48 -3 47 -3 3 -56 c3
-53 1 -57 -23 -63 -35 -9 -32 -35 9 -75 38 -37 62 -36 68 1 3 20 9 23 56 26
l52 3 0 -48 c0 -46 20 -93 40 -93 5 0 11 69 12 153 l3 152 110 0 110 0 3 -44
c3 -39 1 -43 -15 -36 -64 27 -72 28 -104 19 -47 -14 -60 -52 -34 -101 26 -48
73 -70 120 -56 34 11 35 10 35 -16 0 -28 25 -71 41 -71 5 0 9 65 9 155 0 150
1 155 21 155 14 0 19 5 17 18 -3 16 -46 17 -706 20 -697 2 -702 2 -702 -18z
m260 -75 c0 -49 -2 -55 -23 -61 -13 -3 -41 -4 -63 -2 -38 3 -39 4 -42 47 -5
66 -1 71 68 71 l60 0 0 -55z m470 -9 c0 -58 -3 -67 -26 -85 -29 -23 -74 -27
-105 -11 -27 15 -24 26 12 40 31 13 31 14 25 67 l-6 53 50 0 50 0 0 -64z m310
-1 l0 -65 -55 0 -55 0 0 65 0 65 55 0 55 0 0 -65z m278 -61 c2 -11 -4 -26 -12
-33 -19 -16 -84 -31 -102 -24 -20 8 -17 40 7 64 28 28 103 24 107 -7z"/>
<path d="M2540 590 c0 -18 8 -20 143 -22 l142 -3 0 -39 0 -39 -82 2 c-46 1
-83 -1 -83 -4 0 -3 11 -21 25 -39 30 -40 32 -62 5 -76 -30 -16 -76 15 -101 67
-22 45 -45 59 -34 21 20 -65 98 -148 138 -148 13 0 31 6 41 13 19 14 19 37 1
95 -7 21 -5 22 44 22 l51 0 0 -73 c0 -59 4 -77 18 -90 10 -10 22 -17 25 -17 4
0 7 70 7 155 l0 156 58 -3 c51 -3 57 -5 60 -26 5 -32 -15 -52 -49 -52 -36 0
-36 -6 1 -62 39 -59 89 -85 137 -70 33 10 33 10 33 -22 0 -22 8 -40 25 -56
l24 -23 3 154 3 154 118 3 117 3 0 -41 0 -40 -64 0 c-82 0 -116 -23 -116 -80
0 -30 9 -50 41 -90 40 -51 64 -68 76 -56 4 3 -12 23 -35 44 -72 67 -51 130 48
140 l50 5 0 -76 c0 -65 3 -79 22 -96 11 -11 25 -18 30 -15 4 3 8 72 8 155 0
126 2 149 15 149 8 0 15 9 15 20 0 20 -7 20 -480 20 -471 0 -480 0 -480 -20z
m580 -84 c0 -58 -3 -67 -26 -85 -29 -23 -74 -27 -105 -11 -27 15 -24 26 12 39
31 11 32 12 26 60 -3 27 -3 52 0 55 4 3 26 6 50 6 l43 0 0 -64z"/>
</g>
</svg>
